<svg width="29" height="25" viewBox="0 0 29 25" fill="none" xmlns="http://www.w3.org/2000/svg">
<rect x="0.053093" y="0.186523" width="28.7175" height="24.2994" rx="9.71977" fill="#0D6EFD" fill-opacity="0.6"/>
<path d="M23.248 8.98519L23.204 14.527C23.2047 15.0735 23.0971 15.6146 22.8873 16.1192C22.6795 16.6224 22.3744 17.0795 21.9895 17.4645C21.6045 17.8494 21.1474 18.1545 20.6442 18.3623C20.1396 18.5721 19.5985 18.6797 19.052 18.679H17.0024L15.2431 20.4383C15.1337 20.552 15.0019 20.6419 14.8561 20.7022C14.7044 20.7723 14.5393 20.8083 14.3723 20.8078C14.2061 20.8085 14.0415 20.7756 13.8884 20.711C13.7352 20.6428 13.5975 20.544 13.4838 20.4207L11.7685 18.7142H9.71888C9.17405 18.7142 8.63457 18.6067 8.13132 18.398C7.62807 18.1892 7.17094 17.8832 6.78609 17.4976C6.40125 17.1119 6.09625 16.6541 5.88855 16.1504C5.68086 15.6467 5.57454 15.107 5.5757 14.5622V8.75648C5.57417 8.21088 5.68065 7.67037 5.88899 7.16612C6.09734 6.66186 6.40343 6.20383 6.78963 5.81843C7.57021 5.04702 8.62146 4.61137 9.71888 4.6045H19.096C19.6416 4.60334 20.182 4.70994 20.6863 4.91819C21.1905 5.12644 21.6487 5.43222 22.0345 5.818C22.4203 6.20378 22.7261 6.66195 22.9343 7.16621C23.1425 7.67048 23.2492 8.21091 23.248 8.75648V8.98519Z" fill="white"/>
</svg>
