<svg width="17" height="18" viewBox="0 0 17 18" fill="none" xmlns="http://www.w3.org/2000/svg">
<g id="icon-park-solid:setting-two" clip-path="url(#clip0_87_135)">
<g id="Mask group">
<mask id="mask0_87_135" style="mask-type:luminance" maskUnits="userSpaceOnUse" x="0" y="1" width="16" height="16">
<g id="Group">
<g id="Group_2">
<path id="Vector" d="M6.39457 15.4788C5.25282 15.1378 4.21878 14.5071 3.39303 13.6481C3.6587 13.333 3.8243 12.9458 3.86866 12.536C3.91303 12.1263 3.83412 11.7126 3.64205 11.348C3.44998 10.9833 3.15347 10.6843 2.79048 10.4891C2.42749 10.2939 2.01451 10.2115 1.6044 10.2524C1.51076 9.79475 1.46381 9.3288 1.46427 8.8617C1.46427 8.14032 1.57472 7.44447 1.78044 6.79073H1.80943C2.16141 6.79084 2.50761 6.70124 2.81535 6.53039C3.12308 6.35954 3.38219 6.11307 3.56822 5.81426C3.75424 5.51545 3.86103 5.17416 3.87851 4.82261C3.89599 4.47107 3.82359 4.12087 3.66813 3.80507C4.47765 3.05188 5.45626 2.50415 6.52159 2.20801C6.69499 2.54848 6.9592 2.83434 7.28499 3.03396C7.61077 3.23359 7.98543 3.3392 8.36752 3.33911C8.7496 3.3392 9.12426 3.23359 9.45005 3.03396C9.77583 2.83434 10.04 2.54848 10.2134 2.20801C11.2788 2.50415 12.2574 3.05188 13.0669 3.80507C12.9103 4.12308 12.838 4.47595 12.8568 4.82992C12.8756 5.18388 12.985 5.52709 13.1744 5.8267C13.3638 6.12631 13.627 6.37228 13.9387 6.54107C14.2504 6.70986 14.6002 6.79582 14.9546 6.79073C15.1647 7.46095 15.2713 8.15932 15.2708 8.8617C15.2708 9.33803 15.2224 9.80331 15.1306 10.2527C14.7205 10.2118 14.3075 10.2943 13.9445 10.4895C13.5816 10.6846 13.2851 10.9837 13.093 11.3483C12.9009 11.713 12.822 12.1266 12.8664 12.5364C12.9107 12.9461 13.0763 13.3333 13.342 13.6484C12.5162 14.5074 11.4822 15.1379 10.3405 15.4788C10.2064 15.0609 9.94308 14.6964 9.5885 14.4378C9.23392 14.1792 8.80639 14.0398 8.36752 14.0398C7.92864 14.0398 7.5011 14.1792 7.14653 14.4378C6.79195 14.6964 6.52864 15.0609 6.39457 15.4788Z" fill="white" stroke="white" stroke-width="1.38065" stroke-linejoin="round"/>
<path id="Vector_2" d="M8.36751 11.2778C8.6848 11.2778 8.99898 11.2153 9.29212 11.0939C9.58526 10.9725 9.85162 10.7945 10.076 10.5702C10.3003 10.3458 10.4783 10.0794 10.5997 9.78631C10.7211 9.49317 10.7836 9.17899 10.7836 8.86169C10.7836 8.5444 10.7211 8.23022 10.5997 7.93708C10.4783 7.64394 10.3003 7.37759 10.076 7.15323C9.85162 6.92887 9.58526 6.7509 9.29212 6.62947C8.99898 6.50805 8.6848 6.44556 8.36751 6.44556C7.72671 6.44556 7.11215 6.70011 6.65904 7.15323C6.20593 7.60634 5.95137 8.22089 5.95137 8.86169C5.95137 9.50249 6.20593 10.117 6.65904 10.5702C7.11215 11.0233 7.72671 11.2778 8.36751 11.2778Z" fill="black" stroke="black" stroke-width="1.38065" stroke-linejoin="round"/>
</g>
</g>
</mask>
<g mask="url(#mask0_87_135)">
<path id="Vector_3" d="M0.0836029 0.577881H16.6514V17.1457H0.0836029V0.577881Z" fill="white"/>
</g>
</g>
</g>
<defs>
<clipPath id="clip0_87_135">
<rect width="16.5678" height="16.5678" fill="white" transform="translate(0.0836029 0.577637)"/>
</clipPath>
</defs>
</svg>
