<svg width="523" height="349" viewBox="0 0 523 349" fill="none" xmlns="http://www.w3.org/2000/svg">
<mask id="mask0_152_502" style="mask-type:luminance" maskUnits="userSpaceOnUse" x="0" y="0" width="523" height="349">
<path d="M523 0.333313H0V349H523V0.333313Z" fill="white"/>
</mask>
<g mask="url(#mask0_152_502)">
<path d="M288.312 294.642C227.526 292.595 166.31 304.963 106.125 296.191C83.4728 292.889 59.7907 285.683 45.2471 268.006C36.9147 257.878 32.3297 245.102 30.0536 232.186C27.6039 218.284 27.6743 203.942 30.26 190.065C33.3869 173.283 42.57 158.257 44.7325 141.704C46.6404 127.101 56.3277 116.361 69.9543 110.73C83.2713 105.227 98.0513 104.84 112.445 104.171C126.839 103.501 141.715 102.335 154.418 95.5335C174.434 84.8161 185.767 61.8983 205.971 51.5401C222.916 42.8527 243.221 44.4824 261.905 48.1538C280.59 51.8253 299.327 57.351 318.303 55.7569C329.279 54.835 340.002 51.5366 351.014 51.2779C368.639 50.8644 386.283 58.7554 397.724 72.1686C406.664 82.6495 412.59 96.7398 425.104 102.498C432.764 106.023 441.595 105.709 449.754 107.841C466.074 112.107 478.483 126.028 485.193 141.503C498.1 171.267 495.418 204.009 491.502 235.334C482.928 336.498 355.292 296.898 288.312 294.642Z" fill="#ECE7DC"/>
</g>
<mask id="mask1_152_502" style="mask-type:luminance" maskUnits="userSpaceOnUse" x="0" y="0" width="523" height="349">
<path d="M523 0.333313H0V349H523V0.333313Z" fill="white"/>
</mask>
<g mask="url(#mask1_152_502)">
<path d="M114.607 256.562H88.4446C82.5773 271.796 82.5982 255.498 78.3591 271.268C76.3591 278.707 70.763 315.007 69.5497 322.619C68.3203 330.328 67.6467 338.118 67.2694 345.912C66.517 361.453 65.3238 380.014 65.3643 395.565C65.4333 421.973 66.5769 449.408 65.577 473.07C69.7917 473.913 93.1049 474.294 103.077 472.814C103.861 472.698 104.416 472.006 104.378 471.214C103.698 456.998 108.664 334.475 111.241 320.147C114.612 301.402 119.683 299.434 117.391 280.486C116.451 272.716 117.046 264.144 114.607 256.562Z" fill="#6C78CB"/>
<path d="M155.015 306.534C155.465 301.283 155.669 296.045 154.835 290.615C153.679 283.094 150.915 275.824 146.781 269.435C143.896 264.975 140.164 260.808 135.24 258.817C130.675 256.97 125.376 257.201 120.854 259.151C104.553 266.18 107.462 287.854 106.798 302.372C106.284 313.618 111.416 346.639 112.661 358.223C117.475 403.015 125.292 436.005 128.144 473.72C133.037 473.93 138.197 473.5 143.115 473.18C148.497 472.83 158.491 472.26 163.674 470.779C165.237 470.21 163.747 450.636 163.661 448.376C163.375 440.85 162.844 433.335 162.218 425.829C160.937 410.441 159.207 395.091 158.202 379.68C157.664 371.423 155.914 363.269 155.359 355.042C154.572 343.37 153.179 331.912 153.815 320.151C154.066 315.519 154.631 311.022 155.015 306.534Z" fill="#6C78CB"/>
<path d="M109.464 335.698C108.815 315.995 108.336 313.187 107.687 293.484" stroke="#121013" stroke-width="0.697333" stroke-miterlimit="10" stroke-linecap="round" stroke-linejoin="round"/>
<path d="M167.464 262.641C170.076 269.728 172.53 276.95 173.556 284.462C173.967 287.467 174.579 291.053 174.035 294.026C173.363 297.69 171.386 301.52 170.142 305.039C169.645 306.444 169.583 309.616 171.81 308.399C172.599 307.967 173.489 302.48 175.153 305.16C175.413 305.58 175.483 306.087 175.539 306.577C175.833 309.129 175.821 311.69 176.124 314.233C176.36 316.208 176.427 318.24 177.165 320.085C177.904 321.931 179.519 323.599 181.505 323.69C183.323 323.774 184.99 322.499 185.887 320.915C186.783 319.331 187.051 317.478 187.256 315.669C188.089 308.316 187.848 300.905 187.862 293.513C187.891 278.377 184.393 250.499 181.667 239.306C179.747 231.421 177.404 223.639 174.647 216.007C172.217 209.278 170.255 202.2 165.916 196.404C163.099 192.64 159.331 189.459 154.856 188.017C152.33 187.203 149.367 187.025 147.202 188.559C145.126 190.031 144.287 192.707 143.975 195.233C142.794 204.77 147.151 214.011 151.153 222.748C156.339 234.068 161.11 245.578 165.455 257.247C166.124 259.043 166.8 260.84 167.464 262.641Z" fill="#E79E8B"/>
<path d="M58.9134 101.032C57.8764 104.038 57.5034 107.238 56.1178 110.137C55.5662 111.29 54.903 112.393 54.4435 113.586C53.4302 116.215 53.8179 118.707 54.1617 121.359C48.8188 120.889 43.5671 119.907 38.3553 118.697C38.7716 109.972 37.8372 101.244 38.3894 92.4655C38.545 90.9495 38.5338 89.506 38.7667 87.9845C38.9564 86.7495 39.1684 85.458 39.9222 84.4615C41.2876 82.6554 41.6746 84.8151 41.5449 85.9413C41.3371 87.746 41.176 89.55 41.1913 91.3686C41.1962 91.9648 41.524 94.3748 40.8489 94.6858C41.1432 94.5505 41.4466 94.4306 41.7624 94.3414C41.8182 93.8016 41.8691 93.2612 41.9417 92.7235C42.367 89.5514 43.0065 86.4678 44.0204 83.4225C44.1892 82.9155 44.4367 82.3423 44.9527 82.2036C45.4876 82.0592 46.0385 82.5041 46.2142 83.0292C46.7421 84.6038 45.9722 86.859 45.6884 88.4203C45.3983 90.0165 45.1062 91.6043 44.9158 93.2165C44.8851 93.4753 44.8656 93.7347 44.8384 93.9934C45.2917 93.9962 45.7456 94.0115 46.1989 94.0401C46.8139 90.5039 47.5175 86.9845 48.3195 83.4853C48.4847 82.7642 49.021 82.1792 49.8229 82.2614C50.4868 82.3298 51.2162 83.039 51.0467 83.7649C50.2316 87.2557 49.5028 90.7661 48.8585 94.2925C49.4017 94.3651 49.9526 94.4599 50.4687 94.628C50.8306 91.6134 51.4121 88.6086 52.0537 85.6491C52.1932 85.0068 53.1827 83.6003 53.8905 84.5138C54.1499 84.8493 54.1582 85.3095 54.1457 85.7335C54.0216 89.8714 53.0767 93.9411 52.8075 98.07C52.7217 99.3831 51.9993 100.778 52.6339 102.01C53.2531 103.212 54.5062 103.712 55.0941 102.193C55.7482 100.499 56.3416 98.6815 57.3618 97.1642C57.8074 96.501 59.103 94.5087 59.8276 96.1865C60.0751 96.7604 59.8896 97.4215 59.6741 98.0086C59.3018 99.0246 59.2662 100.009 58.9134 101.032Z" fill="#E79E8B"/>
<path d="M105.109 178.794C97.8493 175.421 76.2535 165.746 68.9943 162.373C65.6478 160.818 62.1653 159.157 59.9276 156.223C55.7499 150.744 55.5002 141.447 55.0811 134.847C54.6383 127.88 53.9723 120.913 54.0477 113.925C54.0518 113.56 54.077 113.197 54.0874 112.831C49.2228 113.441 44.3415 113.83 39.4267 113.729C38.3946 118.167 37.2015 122.586 36.5014 127.089C35.1255 135.94 34.5174 144.983 35.2218 153.926C35.9791 163.548 37.1903 173.861 43.5716 181.102C46.2236 184.112 49.6063 186.375 53.0072 188.502C59.8111 192.76 66.8619 196.624 74.1106 200.068C76.6754 201.287 79.2653 202.454 81.8775 203.567C85.383 205.061 89.0587 206.482 92.8668 206.344C99.08 206.121 105.158 199.62 106.622 193.845C109.326 183.179 113.447 182.668 105.109 178.794Z" fill="#E79E8B"/>
<path d="M105.109 178.794C99.4392 176.16 83.1725 168.785 73.6413 164.451C73.4907 166.53 72.9517 168.594 72.2404 170.538C70.1617 176.22 66.5969 181.875 61.7706 185.607C59.6166 187.273 57.1766 188.597 54.5972 189.465C60.9108 193.338 67.4211 196.889 74.1106 200.068C76.6754 201.287 79.2646 202.453 81.8776 203.566C85.383 205.06 89.0587 206.481 92.8668 206.344C99.0801 206.12 105.158 199.619 106.622 193.845C109.326 183.179 113.447 182.668 105.109 178.794Z" fill="#B66754"/>
<path d="M111.64 177.794C111.49 176.349 111.238 174.943 110.884 173.597C110.647 172.694 110.396 171.762 109.815 171.03C108.504 169.377 106.069 169.308 103.958 169.312C98.8791 169.322 81.0915 164.656 77.6927 164.125C76.8887 165.873 76.1084 167.634 75.3462 169.402C71.529 178.251 66.0605 187.602 63.9727 196.968C71.1433 200.952 78.2352 205.149 85.5112 208.937C90.532 211.551 95.9656 209.639 100.452 206.347C109.651 199.594 111.64 188.404 111.64 177.794Z" fill="#D9C468"/>
<path d="M134.673 299.589C114.382 299.385 89.656 300.014 69.4717 297.928C70.8538 282.537 76.4213 248.065 78.0203 232.694C78.7832 225.36 79.5928 218.029 80.5621 210.72C81.2538 205.501 83.2405 199.557 83.2405 194.336C84.403 189.201 86.1526 184.12 89.1727 179.808C93.0611 174.257 98.2939 171.155 104.974 170.669C109.105 170.368 113.245 170.195 117.383 170.021C120.151 169.905 122.991 169.799 125.622 170.667C129.831 172.058 132.865 175.725 135.201 179.492C141.731 190.028 145.142 203.103 147.384 215.194C151.459 237.168 158.656 277.933 160.562 300.15C154.387 300.263 140.849 299.651 134.673 299.589Z" fill="#D9C468"/>
<path d="M165.967 214.928C169.902 213.679 173.836 212.43 177.77 211.181C172.898 199.315 174.854 186.159 165.108 177.819C159.38 172.916 144.058 170.856 136.632 169.426C131.919 168.517 120.692 167.415 117.006 171.225C111.777 176.63 120.381 182.194 122.892 186.152C125.512 190.28 127.438 195.067 129.033 199.67C130.288 203.289 133.205 206.439 135.117 209.8C137.486 213.963 139.556 218.297 141.306 222.756C149.527 220.147 157.747 217.537 165.967 214.928Z" fill="#D9C468"/>
<path d="M123.731 172.245C122.303 173.987 120.515 175.438 118.429 176.317C114.86 177.822 110.406 177.433 107.507 174.864C106.909 174.335 106.376 173.712 106.072 172.973C105.724 172.13 105.698 171.192 105.728 170.28C105.825 167.288 106.189 164.471 106.206 161.467C106.208 161.225 106.199 160.96 106.017 160.792C105.845 160.633 105.569 160.61 105.317 160.584C93.4535 160.584 98.3718 142.183 99.12 135.818C99.2811 134.448 99.5022 132.955 100.517 132.02C101.738 130.896 103.605 131.006 105.265 131.045C108.379 131.119 111.498 130.695 114.602 130.94C119.823 131.352 125.565 134.833 126.428 140.393C126.694 142.111 126.483 143.883 126.274 145.634C125.523 151.908 124.769 158.26 125.317 164.584C125.581 167.615 126.227 168.867 124.319 171.485C124.13 171.745 123.934 171.998 123.731 172.245Z" fill="#E79E8B"/>
<path d="M127.29 136.331C126.379 130.723 120.001 124.762 114.09 125.786C112.549 126.053 111.128 126.767 109.652 127.281C108.025 127.848 106.315 128.175 104.594 128.249C101.759 128.371 98.5412 128.488 97.1745 131.451C96.5141 132.882 96.5629 134.621 97.3028 136.013C97.4422 136.276 97.6326 136.548 97.9213 136.619C98.1319 136.67 98.3516 136.604 98.5615 136.548C99.5266 136.29 100.547 136.24 101.533 136.403C102.28 136.527 103.003 136.77 103.749 136.895C105.091 137.121 106.466 136.96 107.826 137.025C112.508 137.25 111.03 141.179 114.304 142.835C115.297 143.336 115.725 142.837 116.438 144.062C117.745 146.311 116.569 149.351 117.633 151.826C118.443 153.709 121.82 157.616 124.143 157.374C127.506 157.024 126.239 148.765 126.45 146.446C126.748 143.167 127.778 139.903 127.336 136.64C127.322 136.537 127.306 136.434 127.29 136.331Z" fill="#121013"/>
<path d="M118.968 141.362C116.989 140.651 114.563 141.801 113.677 143.67C112.475 146.207 113.259 150.198 116.627 150.272C118.113 150.304 119.511 149.768 120.598 148.763C121.714 147.731 121.909 146.036 121.597 144.581C121.332 143.343 120.57 142.191 119.46 141.584C119.3 141.496 119.136 141.422 118.968 141.362Z" fill="#E79E8B"/>
<path d="M98.9965 149.878C98.8522 151.092 99.6409 152.447 100.784 153.154C101.927 153.86 103.344 153.945 104.464 153.499C105.583 153.053 106.413 152.123 106.875 151.026L98.9965 149.878Z" fill="white"/>
<mask id="mask2_152_502" style="mask-type:luminance" maskUnits="userSpaceOnUse" x="97" y="130" width="30" height="47">
<path d="M124.02 172.754C123.592 173.367 123.046 173.956 122.351 174.518C120.666 175.881 118.535 176.62 116.382 176.867C113.848 177.158 111.145 176.75 109.088 175.244C105.099 172.325 106.182 165.803 106.206 161.468C106.208 161.227 106.198 160.962 106.017 160.794C105.845 160.634 105.569 160.611 105.316 160.585C98.9818 159.952 96.8786 153.677 97.3933 148.692C97.8117 144.632 99.1387 140.574 100.72 136.699C101.089 135.794 101.512 134.868 102.288 134.184C103.573 133.052 107.712 131.621 109.444 130.999C112.679 129.836 115.771 130.707 118.694 131.85C122.603 133.377 125.82 136.474 126.427 140.393C126.694 142.111 126.483 143.883 126.274 145.636C125.618 151.124 124.962 156.652 125.172 162.189C125.317 166.047 126.154 169.695 124.02 172.754Z" fill="white"/>
</mask>
<g mask="url(#mask2_152_502)">
<path d="M110.323 158.516C110.665 158.276 111.023 158.058 111.394 157.864C111.899 157.599 112.517 157.379 113.023 157.643C113.643 157.965 113.736 158.833 113.546 159.506C112.804 162.147 109.75 163.238 107.308 163.623C106.528 163.746 104.863 163.962 104.298 163.213C103.521 162.179 105.195 160.661 106.12 160.5C106.78 160.385 107.48 160.449 108.1 160.197C108.639 159.979 109.057 159.547 109.495 159.164C109.76 158.934 110.036 158.717 110.323 158.516Z" fill="#B66754"/>
</g>
<path d="M149.129 220.429C147.374 215.866 145.618 211.304 143.862 206.74" stroke="#121013" stroke-width="0.697333" stroke-miterlimit="10" stroke-linecap="round" stroke-linejoin="round"/>
<path d="M175.003 225.278C176.014 226.9 176.698 228.724 177.003 230.609" stroke="#121013" stroke-width="0.697333" stroke-miterlimit="10" stroke-linecap="round" stroke-linejoin="round"/>
<path d="M118.052 143.709C116.748 143.876 115.605 144.925 115.326 146.21" stroke="#121013" stroke-width="0.697333" stroke-miterlimit="10" stroke-linecap="round" stroke-linejoin="round"/>
<path d="M81.2832 206.968C82.7629 205.452 84.0147 203.714 84.9819 201.829" stroke="#121013" stroke-width="0.697333" stroke-miterlimit="10" stroke-linecap="round" stroke-linejoin="round"/>
<path d="M139.123 204.301C141.223 205.038 143.322 205.774 145.423 206.511C145.443 206.553 145.465 206.595 145.486 206.636C145.493 206.875 146.934 213.294 147.426 216.113C142.801 214.04 138.85 209.436 137.668 204.507C137.902 204.02 138.615 204.123 139.123 204.301Z" fill="#121013"/>
<path d="M72.0363 188.761C76.4595 186.857 80.7516 184.682 85.0311 182.48C88.9055 180.487 92.7367 178.365 96.2833 175.824C97.0999 175.239 97.9074 174.626 98.6926 173.983C100.153 172.569 101.447 171.004 102.477 169.224C96.0769 168.588 80.8172 164.613 77.6945 164.125C76.8905 165.874 76.1102 167.635 75.348 169.403C72.2902 176.492 68.178 183.904 65.5874 191.387C67.7498 190.544 69.9039 189.679 72.0363 188.761Z" fill="#AD8B50"/>
<path d="M165.109 177.819C159.381 172.916 144.06 170.856 136.634 169.425C136.156 169.333 135.607 169.24 135.01 169.149C135.965 170.436 136.91 171.729 137.837 173.036C140.899 177.358 143.804 181.783 146.626 186.259C147.029 186.816 147.436 187.371 147.832 187.934C150.684 191.981 153.066 196.303 155.422 200.653C155.555 200.898 155.685 201.145 155.817 201.392C155.996 201.695 156.176 201.999 156.355 202.303C159.474 204.461 162.82 206.296 166.308 207.776C169.93 209.314 173.683 210.461 177.508 211.265L177.772 211.182C172.899 199.315 174.855 186.159 165.109 177.819Z" fill="#AD8B50"/>
<path d="M110.994 207.298C110.88 207.394 110.745 207.471 110.566 207.489C102.534 208.327 95.8414 215.771 94.8512 223.62C94.4021 227.18 95.1908 230.845 97.3902 233.718C99.4075 236.354 102.354 238.077 105.557 238.849C112.135 240.434 119.163 238.247 123.892 233.503C126.668 230.718 128.985 227.3 129.698 223.373C130.251 220.336 129.636 217.196 127.991 214.587C124.435 208.942 117.39 206.868 110.994 207.298Z" fill="#AD8B50"/>
<path d="M116.499 292.598C107.264 292.021 98.0358 291.863 88.7885 291.608C82.6108 291.438 76.4192 291.147 70.2764 290.451C69.9424 293.243 69.6648 295.777 69.4717 297.927C89.6567 300.014 114.382 299.383 134.673 299.588C140.849 299.65 154.387 300.262 160.562 300.149C160.369 297.901 160.12 295.457 159.828 292.868C145.4 293.677 130.925 293.499 116.499 292.598Z" fill="#AD8B50"/>
<path d="M54.7365 103.244C53.4144 103.877 52.2045 104.742 51.1787 105.788" stroke="#121013" stroke-width="0.697333" stroke-miterlimit="10" stroke-linecap="round" stroke-linejoin="round"/>
<path d="M51.3689 94.794C49.5586 94.0903 47.5719 93.9362 45.6347 94.0771C43.6975 94.218 41.7938 94.6433 39.8984 95.0673" stroke="#121013" stroke-width="0.697333" stroke-miterlimit="10" stroke-linecap="round" stroke-linejoin="round"/>
<path d="M103.123 141.006C102.514 142.411 101.905 143.815 101.295 145.218C101.083 145.709 100.867 146.255 101.036 146.762C101.205 147.269 101.972 147.559 102.283 147.124" stroke="#121013" stroke-width="0.697333" stroke-miterlimit="10" stroke-linecap="round" stroke-linejoin="round"/>
</g>
<mask id="mask3_152_502" style="mask-type:luminance" maskUnits="userSpaceOnUse" x="0" y="0" width="523" height="349">
<path d="M523 0.333313H0V349H523V0.333313Z" fill="white"/>
</mask>
<g mask="url(#mask3_152_502)">
<path d="M269.167 144.444C263.31 150.942 255.079 151.184 248.021 155.293C241.369 159.165 240.852 168.736 243.248 176.162C245.423 182.905 251.658 188.622 258.742 188.598C261.472 188.588 264.133 187.769 266.683 186.798C283.477 180.406 297.956 166.404 304.376 149.529C311.241 131.485 309.643 109.989 310.36 90.9635C310.455 88.4594 310.549 85.9525 310.846 83.4644C311.21 80.4087 311.875 77.399 312.457 74.3774C313.476 69.0896 314.242 63.7543 314.782 58.3966C314.862 57.6045 315.083 55.9636 314.244 55.4399C313.856 55.1973 313.312 55.4399 313.071 55.8298C312.807 56.2572 312.636 56.8409 312.506 57.465C312.312 58.3966 312.211 59.4182 312.026 60.1463C311.747 61.2473 311.522 62.3596 311.287 63.4704C311.133 64.195 310.79 65.2166 310.256 65.7605C309.957 66.0652 309.418 66.1782 309.109 65.8846C308.867 65.6552 308.85 65.2807 308.871 64.9481C308.972 63.3233 309.727 61.8178 309.978 60.2369C310.264 58.4371 310.676 56.6686 310.884 54.8521C310.947 54.3047 310.999 53.7385 310.838 53.2106C310.678 52.6827 310.253 52.198 309.706 52.1339C309.312 52.0879 308.914 52.2671 308.636 52.5488C308.195 52.9944 308.044 53.6422 307.911 54.2545C307.492 56.1868 307.073 58.1198 306.654 60.0521C306.444 61.0186 306.235 61.9844 306.025 62.9509C305.879 63.6287 305.782 64.4495 305.116 64.8463C304.134 65.4313 304.027 63.9593 304.108 63.4112C304.488 60.8289 304.767 58.2544 305.076 55.6826C305.194 54.7008 305.52 53.7454 305.54 52.7503C305.557 51.878 305.034 50.5454 303.918 50.7936C303.412 50.9059 303.021 51.3278 302.809 51.7999C302.598 52.2727 302.538 52.7971 302.481 53.311C302.207 56.617 301.981 60.1072 301.074 63.2989C300.935 63.787 300.863 64.4641 300.532 64.8609C300.351 65.0771 300.046 65.2152 299.781 65.1161C299.46 64.9962 299.345 64.6099 299.28 64.2738C298.715 61.338 298.816 58.313 299.102 55.3367C299.152 54.8165 299.206 54.2775 299.04 53.781C298.874 53.2852 298.422 52.8431 297.9 52.8689C296.295 52.9491 296.196 55.8493 296.172 56.9281C296.127 58.9559 296.038 60.983 295.904 63.0067C295.776 64.9334 296.21 68.2737 295.075 69.9222C294.489 70.7729 293.111 71.1467 292.422 70.3768C292.124 70.0435 292.021 69.584 291.929 69.146C291.593 67.5547 291.507 64.7215 290.459 63.4091C290.224 63.1155 289.88 62.8812 289.504 62.8847C289.008 62.8896 288.594 63.3114 288.436 63.7814C288.117 64.7326 288.6 65.9376 288.71 66.9055C288.869 68.2946 289.042 69.683 289.285 71.0595C290.314 76.8711 293.108 80.3424 292.477 86.2182C290.92 100.711 282.611 115.494 277.409 128.979C275.296 134.463 273.101 140.079 269.167 144.444Z" fill="#9D5B34"/>
<path d="M310.925 66.5937C307.061 65.0003 302.676 64.7032 298.633 65.7597" stroke="#1A2732" stroke-width="0.697333" stroke-miterlimit="10" stroke-linecap="round" stroke-linejoin="round"/>
<path d="M164.246 287.241C165.331 280.954 173.434 254.566 177.8 249.914C180.795 246.723 184.91 244.87 188.909 243.096C195.176 240.316 201.551 237.505 208.348 236.606C218.002 235.33 228.059 238.145 235.895 243.927C244.415 250.214 249.648 259.075 251.546 269.268C252.619 275.029 254.813 280.508 255.698 286.377C256.556 292.064 256.993 297.804 257.355 303.541C258.178 316.57 257.838 329.661 258.978 342.665C259.369 347.128 259.935 351.576 260.165 356.051C260.279 358.261 260.249 360.673 258.883 362.414C258.13 363.374 257.052 364.015 255.979 364.593C242.881 371.646 227.436 372.28 212.521 372.547C212.515 370.975 212.546 369.402 212.569 367.829C212.704 358.666 212.275 349.654 212.781 340.578C213.145 334.042 211.152 327.617 210.988 321.119C210.838 315.198 210.581 309.273 210.643 303.352C210.654 302.389 210.508 301.189 209.601 300.867C207.39 300.083 207.516 303.32 207.521 304.467C207.531 306.832 206.915 309.21 206.632 311.574C205.999 316.86 205.81 322.187 205.367 327.49C204.891 333.201 203.881 338.831 203.616 344.554C203.342 350.445 203.166 356.342 203.101 362.239C203.075 364.446 203.919 369.206 202.471 370.78C201.386 371.958 197.741 372.252 196.134 372.566C191.769 373.422 187.809 372.737 183.442 372.605C173.816 372.314 160.801 375.379 160.64 361.981C160.257 330.261 158.845 318.503 164.246 287.241Z" fill="black"/>
<path d="M194.338 164.44C194.337 164.613 194.299 164.783 194.237 164.944C194.15 164.887 194.057 164.836 193.963 164.785L194.338 164.44Z" fill="#5A3870"/>
<path d="M138.396 235.415C138.405 236.037 138.421 236.658 138.442 237.279C138.801 247.88 154.459 244.412 160.797 242.082C163.026 241.262 165.264 240.246 167.414 239.041C168.963 224.914 170.713 211.236 176.998 198.125C180.801 190.194 186.618 183.11 189.754 174.903C189.963 174.355 190.146 173.798 190.296 173.227C190.894 170.951 190.86 168.295 189.32 166.515C186.879 163.695 182.339 164.576 178.88 165.973C158.806 174.088 145.699 192.331 140.796 213.012C139.799 217.214 139.123 221.489 138.745 225.79C138.39 229.829 137.601 234.985 138.662 238.942C138.968 240.085 139.61 241.185 140.622 241.797" fill="#48181E"/>
<path d="M174.467 220.713C164.424 216.763 145.505 209.417 135.836 204.617C141.433 197.745 156.687 173.624 164.105 168.848C166.171 167.517 168.296 166.39 170.502 165.32C180.647 160.399 192.173 157.587 203.481 158.145C204.324 158.187 205.174 158.287 205.986 158.467C205.2 162.271 202.573 166.144 200.319 169.231C198.577 171.616 196.656 173.88 194.704 176.088C191.562 179.641 188.661 183.408 185.597 187.029C184.57 188.244 177.299 217.686 174.467 220.713Z" fill="#B9BECC"/>
<path d="M177.903 185.735C180.137 179.003 183.422 165.131 189.056 160.48C193.625 156.709 201.816 157.989 207.486 158.089C216.552 158.249 225.407 160.886 232.537 166.602C252.584 182.674 254.89 214.095 255.574 237.753C255.869 247.956 255.843 258.204 256.025 268.42C241.662 265.849 227.451 265.653 212.919 265.486C209.193 265.443 168.551 264.925 168.535 264.172C168.216 249.594 170.287 235.697 172.115 221.316C173.648 209.252 173.973 197.582 177.903 185.735Z" fill="#B9BECC"/>
<path d="M228.474 164.44C228.474 164.613 228.513 164.783 228.574 164.944C228.662 164.887 228.755 164.836 228.848 164.785L228.474 164.44Z" fill="#5A3870"/>
<path d="M271.135 172.783C267.463 164.635 263.736 156.513 259.844 148.468C253.147 150.39 217.171 160.134 216.826 158.467C217.612 162.271 220.239 166.145 222.493 169.231C224.235 171.616 226.156 173.881 228.108 176.088C231.25 179.642 234.151 183.409 237.215 187.03C241.556 192.163 237.778 199.738 245.298 198.702C246.077 198.595 246.975 198.395 248.016 198.092C257.75 195.253 267.156 191.308 276.023 186.391C274.332 181.879 272.738 177.329 271.135 172.783Z" fill="#B9BECC"/>
<path d="M220.442 135.063C220.564 132.552 220.5 130.026 219.903 127.569C219.211 124.716 218.154 122.878 215.89 121.023C213.795 119.307 211.258 118.106 208.558 117.774C200.522 116.785 195.26 123.546 194.466 130.923C194.145 133.911 193.834 136.942 194.174 139.943C194.456 142.438 195.72 144.284 196.933 146.466C197.212 146.97 197.495 147.481 197.63 148.041C197.75 148.539 197.748 149.058 197.745 149.572C197.737 151.151 197.924 152.726 197.768 154.304C197.693 155.066 197.551 155.856 197.186 156.538C196.743 157.364 195.908 157.732 195.059 158.019C194.935 158.061 194.808 158.1 194.688 158.152C195.176 158.408 195.582 158.972 195.969 159.373C196.462 159.886 196.945 160.407 197.43 160.926C197.899 161.428 198.367 161.931 198.849 162.42C199.118 162.693 199.403 163.042 199.743 163.231C201.641 164.286 204.146 164.992 206.3 165.219C209.669 165.575 213.083 164.7 216.134 163.226C216.877 162.867 221.981 159.679 220.516 158.506C220.387 158.403 220.216 158.379 220.056 158.342C219.151 158.133 218.429 157.419 217.99 156.601C217.551 155.783 217.352 154.861 217.159 153.953C216.896 152.711 216.631 151.47 216.367 150.228C215.845 147.772 217.244 146.342 218.287 144.288C219.418 142.061 220.106 139.609 220.305 137.119C220.361 136.436 220.408 135.75 220.442 135.063Z" fill="#9D5B34"/>
<path d="M193.97 134.439C193.232 134.663 192.511 134.312 192.172 132.889C191.529 130.187 192.111 126.644 192.577 123.932C192.763 122.848 193.046 121.667 193.934 121.017C194.147 120.862 194.392 120.743 194.655 120.717C195.253 120.655 195.878 120.732 196.436 120.685C197.154 120.625 197.583 120.193 198.323 120.723C198.995 121.204 199.295 122.075 199.306 122.902C199.318 123.729 199.085 124.536 198.891 125.339C198.486 127.016 198.242 128.733 198.165 130.456C198.152 130.734 198.141 131.025 198.002 131.266C197.648 131.879 196.73 131.829 196.137 131.693C195.941 132.852 194.94 134.144 193.97 134.439Z" fill="black"/>
<path d="M220.2 136.399C219.552 136.35 218.944 135.831 218.706 134.872C218.345 133.408 218.791 131.272 217.988 130.035C217.805 129.754 217.56 129.519 217.36 129.25C216.38 127.932 216.65 126.1 216.283 124.499C216.067 123.554 215.621 122.68 215.28 121.773C214.939 120.866 214.7 119.876 214.918 118.932C215.492 116.443 217.847 117.295 219.242 118.536C221.472 120.52 222.726 123.708 223.081 126.62C223.31 128.484 223.257 136.628 220.2 136.399Z" fill="black"/>
<path d="M196.303 137.31C195.294 138.153 193.235 137.874 192.338 137.02C191.71 136.421 191.341 135.601 191.059 134.78C190.789 133.99 190.582 133.159 190.65 132.327C190.864 129.708 193.533 127.352 196.1 128.99C198.376 130.442 198.42 133.26 197.475 135.552C197.206 136.205 196.835 136.865 196.303 137.31Z" fill="#9D5B34"/>
<path d="M217.214 132.572C217.061 130.992 217.474 129.377 219.054 128.667C220.023 128.231 221.212 128.326 222.099 128.911C223.028 129.523 223.578 130.601 223.748 131.701C223.917 132.8 223.744 133.925 223.474 135.004C223.345 135.522 223.183 136.052 222.829 136.453C221.942 137.456 219.875 137.748 218.894 136.941C217.762 136.01 217.345 133.938 217.214 132.572Z" fill="#9D5B34"/>
<path d="M205.568 120.145C205.654 118.936 206.066 117.752 206.749 116.752" stroke="#DC8A72" stroke-width="0.697333" stroke-miterlimit="10" stroke-linecap="round" stroke-linejoin="round"/>
<path d="M217.757 122.811C217.633 122.84 217.504 122.865 217.369 122.886C215.757 123.134 214.131 122.532 212.702 121.744C212.158 121.443 211.619 121.11 211.015 120.961C210.384 120.804 209.722 120.86 209.075 120.915C206.347 121.15 203.481 121.381 200.883 122.285C199.272 122.589 196.246 123.29 194.99 121.772C193.771 120.298 194.796 117.477 195.809 116.174C196.862 114.818 198.367 113.882 199.925 113.16C203.093 111.69 206.635 110.993 210.115 111.286C213.222 111.547 216.582 112.805 218.643 115.233C220.61 117.551 221.479 121.948 217.757 122.811Z" fill="black"/>
<path d="M211.864 141.969C210.53 143.614 208.338 144.521 206.231 144.299C204.125 144.078 202.17 142.735 201.207 140.849" fill="white"/>
<mask id="mask4_152_502" style="mask-type:luminance" maskUnits="userSpaceOnUse" x="194" y="117" width="28" height="49">
<path d="M220.442 135.063C221.584 132.86 221.631 130.367 219.903 127.569C218.361 125.071 218.154 122.878 215.89 121.023C213.795 119.307 211.258 118.106 208.558 117.774C200.522 116.785 195.26 123.546 194.466 130.923C194.145 133.911 193.834 136.942 194.174 139.943C194.456 142.438 195.72 144.284 196.933 146.466C197.212 146.97 197.495 147.481 197.63 148.041C197.75 148.539 197.748 149.058 197.745 149.572C197.734 151.772 197.716 153.991 197.333 156.163C197.199 156.929 197.181 157.835 196.915 158.555C196.828 158.791 195.608 160.636 195.331 160.451C198.676 162.695 202.295 164.796 206.301 165.22C209.67 165.575 213.083 164.701 216.134 163.227C217.809 162.418 219.472 161.349 220.322 159.695C220.386 159.571 220.446 159.434 220.424 159.296C220.392 159.105 220.216 158.979 220.06 158.863C218.414 157.647 218.115 155.771 217.666 153.91C217.385 152.744 217.192 151.571 216.99 150.398C216.836 149.502 216.301 148.475 216.473 147.558C216.565 147.07 216.864 146.653 217.141 146.242C218.956 143.54 220.045 140.362 220.304 137.12C220.361 136.436 220.125 135.674 220.442 135.063Z" fill="white"/>
</mask>
<g mask="url(#mask4_152_502)">
<path d="M197.377 147.477C198.271 148.341 199.223 149.237 200.428 149.54C201.295 149.758 202.204 149.645 203.098 149.603C204.702 149.53 206.344 149.705 207.814 150.349C207.692 150.761 207.302 151.041 206.898 151.189C206.494 151.336 206.06 151.38 205.647 151.5C205.153 151.643 204.699 151.893 204.223 152.087C202.017 152.989 199.513 152.651 197.185 152.135C196.818 152.054 196.379 151.896 196.32 151.524" fill="#48181E"/>
</g>
<path d="M172.627 220.857C175.295 212.774 177.962 204.69 180.629 196.608" stroke="#1A2732" stroke-width="0.697333" stroke-miterlimit="10" stroke-linecap="round" stroke-linejoin="round"/>
<path d="M206.724 129.714C207.107 131.714 207.491 133.714 207.874 135.715C207.955 136.138 208.037 136.568 208.001 136.998C207.964 137.428 207.794 137.864 207.455 138.13C207.115 138.396 206.588 138.441 206.261 138.162" stroke="black" stroke-width="0.697333" stroke-miterlimit="10" stroke-linecap="round" stroke-linejoin="round"/>
<path d="M138.297 229.508C138.679 227.7 139.385 226.013 140.664 224.695C143.92 221.341 147.917 220.583 152.437 220.889C154.094 221.001 155.771 221.154 157.329 221.727C159.172 222.403 160.766 223.64 162.13 225.052C165.67 228.715 166.865 232.871 167.989 237.656C168.747 240.877 169.197 244.163 170.043 247.364C172.37 256.172 175.742 264.816 177.802 273.713C177.273 274.838 176.736 275.961 176.168 277.068C173.483 282.301 169.924 286.814 165.87 290.872C157.523 281.6 150.329 271.291 144.546 260.237C140.153 251.84 137.789 243.659 137.872 234.123C137.885 232.597 137.979 231.011 138.297 229.508Z" fill="#9D5B34"/>
<path d="M179.332 270.105C177.118 277.085 172.638 283.084 168.235 288.936C167.135 290.399 165.946 291.931 164.239 292.593" stroke="#1A2732" stroke-width="0.697333" stroke-miterlimit="10" stroke-linecap="round" stroke-linejoin="round"/>
<path d="M221.226 129.98C219.669 130.421 218.522 132.013 218.595 133.63" stroke="black" stroke-width="0.697333" stroke-miterlimit="10" stroke-linecap="round" stroke-linejoin="round"/>
<path d="M194.12 131.145C194.426 131.281 194.754 131.373 195.04 131.546C195.858 132.043 196.141 133.249 195.629 134.058" stroke="black" stroke-width="0.697333" stroke-miterlimit="10" stroke-linecap="round" stroke-linejoin="round"/>
</g>
<mask id="mask5_152_502" style="mask-type:luminance" maskUnits="userSpaceOnUse" x="0" y="0" width="523" height="349">
<path d="M523 0.333313H0V349H523V0.333313Z" fill="white"/>
</mask>
<g mask="url(#mask5_152_502)">
<path d="M361.526 417.639C364.866 418.31 371.178 417.987 374.324 416.771C373.678 392.678 373.033 368.585 372.387 344.492C372.026 331.008 371.662 317.502 370.075 304.107C369.127 296.107 367.715 288.043 364.718 280.528C362.889 275.941 359.476 266.859 354.579 264.544C339.202 257.276 327.399 257.232 328.373 265.663C330.25 281.924 335.997 289.299 339.128 322.676C341.1 343.707 353.182 395.651 355.485 416.652C355.525 417.02 358.901 417.101 361.526 417.639Z" fill="#D79280"/>
<path d="M302.182 417.836C303.044 418.063 312.153 417.863 312.15 417.937C313.594 414.697 316.585 391.559 317.394 378.81C318.424 362.575 320.257 348.601 320.513 332.336C320.741 317.84 320.383 302.865 314.144 289.627C312.535 286.212 310.456 282.857 307.268 280.65C304.08 278.444 299.573 277.628 296.134 279.463C291.369 282.007 290.55 288.073 290.343 293.251C288.672 334.804 294.26 375.197 296.225 416.519C296.242 416.888 299.601 417.155 302.182 417.836Z" fill="#D79280"/>
<path d="M329.113 328.097C327.367 315.859 325.621 303.62 323.875 291.382C323.357 287.758 322.742 284.043 322.189 280.295C321.181 273.469 320.381 266.534 320.763 259.839C321.279 250.825 320.947 241.465 323.281 232.597C324.112 229.44 325.362 226.193 327.928 224.174C332.075 220.912 338.172 224.104 342.378 225.908C346.889 227.843 350.85 230.777 353.994 234.547C360.511 242.361 363.333 252.651 366.297 262.179C367.81 267.041 369.219 271.936 370.524 276.86C373.023 286.293 375.137 295.828 376.859 305.434C379.736 321.489 381.667 337.464 381.199 353.851C381.172 354.808 381.099 355.86 380.43 356.543C379.725 357.264 378.605 357.327 377.597 357.35C370.989 357.499 364.386 357.866 357.801 358.45C352.383 358.932 343.302 363.549 338.089 361.22C330.332 357.747 330.162 335.445 329.113 328.097Z" fill="#97AFBD"/>
<path d="M283.597 316.706C283.437 311.175 283.419 305.634 283.773 300.073C284.924 282.005 286.364 262.368 294.242 245.8C295.59 242.964 297.153 240.165 299.436 238.009C303.256 234.402 308.725 232.986 313.979 232.983C317.161 232.981 320.402 233.467 323.236 234.912C325.236 235.932 327.56 237.705 328.466 239.842C329.318 241.853 328.678 243.536 328.376 245.688C327.506 251.869 325.594 258.759 326.206 264.968C326.853 271.529 327.263 278.067 327.331 284.663C327.587 309.659 327.687 334.213 324.8 359.126C321.469 356.838 317.02 357.759 312.99 358.07C303.277 358.82 293.278 355.465 283.898 358.096C285.281 344.212 283.997 330.485 283.597 316.706Z" fill="#97AFBD"/>
<path d="M320.837 138.08C316.704 137.754 312.318 135.208 309.77 132.576C307.769 130.511 305.541 126.738 305.23 123.849C305.09 122.546 305.316 121.236 305.491 119.938C305.83 117.439 305.987 114.9 306.688 112.478C307.388 110.056 308.715 107.701 310.858 106.373C313.89 104.493 317.149 106.067 320.181 107.048C323.434 108.099 326.743 109.179 329.528 111.161C332.312 113.144 334.539 116.209 334.653 119.626C334.696 120.886 334.452 122.143 334.492 123.404C334.52 124.284 334.683 125.178 334.483 126.037C334.338 126.659 334.009 127.221 333.678 127.766C332.588 129.555 331.408 131.287 330.141 132.955C328.973 134.492 327.7 136.004 326.044 136.995C324.484 137.928 322.686 138.226 320.837 138.08Z" fill="black"/>
<path d="M351.653 255.439C349.101 255.308 346.449 254.935 343.867 254.898C334.851 254.771 325.948 256.667 317.004 257.813C302.881 259.621 280.364 263.383 276.065 245.434C274.812 240.201 275.199 234.732 275.593 229.366C276.798 212.936 278.075 196.194 284.278 180.934C291.334 163.576 305.738 148.658 325.095 146.803C329.215 146.407 333.248 146.755 337.358 146.797C339.783 146.822 342.207 146.852 344.631 146.885C344.841 146.888 345.06 146.893 345.245 146.994C345.421 147.089 345.542 147.257 345.657 147.421C346.087 148.027 346.55 149.041 347.148 149.483C347.613 149.824 348.349 149.956 348.882 150.192C350.286 150.814 351.651 151.527 352.953 152.342C354.216 153.132 355.422 154.017 356.54 155.001C357.448 155.8 358.986 156.958 359.479 158.086C364.107 163.931 364.927 171.835 365.46 179.271C366.932 199.806 368.165 220.376 366.033 240.893C365.734 243.764 365.374 246.699 364.071 249.274C361.156 255.039 356.596 255.693 351.653 255.439Z" fill="#6C78CB"/>
<path d="M307.66 118.418C308.222 116.953 308.923 115.512 309.977 114.348C314.573 109.269 324.882 109.21 329.104 114.66C331.957 118.343 331.883 123.696 331.732 128.122C331.681 129.629 331.663 131.126 331.672 132.618C331.688 135.044 331.773 137.469 331.897 139.891C331.96 141.139 332.034 142.386 332.113 143.633C332.146 144.162 332.174 144.707 332.267 145.228C332.363 145.765 332.69 146.177 332.852 146.689C333.015 147.204 332.923 147.764 332.793 148.289C332.556 149.235 332.192 150.628 331.489 151.345C330.848 152 329.867 152.444 329.045 152.823C328.098 153.259 327.15 153.697 326.202 154.133C325.82 154.31 325.436 154.486 325.03 154.595C324.615 154.708 324.184 154.747 323.769 154.857C323.312 154.977 322.877 155.181 322.409 155.247C322.052 155.298 321.69 155.268 321.334 155.219C319.883 155.017 318.45 154.457 317.32 153.512C316.839 153.11 316.184 152.516 315.984 151.901C315.753 151.19 315.739 150.319 315.641 149.577C315.306 147.037 315.212 144.473 314.92 141.928C314.88 141.573 314.831 141.207 314.649 140.901C314.347 140.391 313.793 140.202 313.254 140.053C312.774 139.921 312.314 139.709 311.883 139.454C310.876 138.859 310.106 137.86 309.397 136.953C307.849 134.971 306.82 132.59 306.355 130.124C305.619 126.217 306.235 122.132 307.66 118.418Z" fill="#D79280"/>
<path d="M327.66 126.911C327.66 129.274 329.575 131.19 331.938 131.19C334.302 131.19 336.218 129.274 336.218 126.911C336.218 124.548 334.302 122.632 331.938 122.632C329.576 122.632 327.66 124.548 327.66 126.911Z" fill="#D79280"/>
<path d="M331.214 124.975C332.166 125.072 333.032 125.765 333.332 126.673C333.633 127.581 333.353 128.655 332.647 129.3" stroke="#1A2732" stroke-width="0.697333" stroke-miterlimit="10" stroke-linecap="round" stroke-linejoin="round"/>
<mask id="mask6_152_502" style="mask-type:luminance" maskUnits="userSpaceOnUse" x="307" y="109" width="26" height="45">
<path d="M331.672 132.618C331.663 131.126 331.68 129.629 331.732 128.122C331.897 123.293 331.863 118.349 329.43 114.032C326.971 109.669 322.567 108.551 317.662 109.315C313.45 109.97 311.771 111.43 310.421 115.149C308.71 119.861 307.848 124.169 307.864 129.219C307.871 131.669 307.992 134.201 309.061 136.406C310.131 138.61 312.652 140.438 315.095 140.256C314.572 144.498 314.093 151.143 318.632 152.918C322.712 154.512 331.515 154.293 332.296 148.525C332.391 147.821 332.343 147.105 332.296 146.396C331.981 141.753 331.7 137.209 331.672 132.618Z" fill="white"/>
</mask>
<g mask="url(#mask6_152_502)">
<path d="M311.745 143.921C313.024 144.389 314.447 143.891 315.659 143.269C317.542 142.304 319.325 140.958 320.272 139.066C318.571 139.902 316.677 140.345 314.781 140.348C314.069 140.349 313.36 140.289 312.65 140.23C311.666 140.147 310.683 140.065 309.699 139.983" fill="black"/>
</g>
<path d="M330.496 108.354C329.877 107.371 329.206 106.419 328.511 105.504C327.858 104.645 327.069 103.751 326.002 103.6C324.935 103.449 323.942 104.399 324.186 105.45C323.716 104.083 322.402 101.843 321.329 100.926C320.437 100.163 319.107 99.8449 318.052 100.358C316.997 100.871 316.433 102.321 317.056 103.316C316.545 102.442 316.015 101.545 315.214 100.927C314.413 100.309 313.263 100.029 312.374 100.513C311.091 101.212 310.983 103.023 311.318 104.446C311.124 103.619 309.275 102.68 308.547 102.454C307.378 102.092 306.455 102.995 306.191 104.152C305.961 105.163 306.291 106.25 306.916 107.078C306.18 106.544 305.04 106.8 304.499 107.53C303.956 108.26 303.989 109.322 304.46 110.1C304.93 110.877 305.775 111.382 306.662 111.58C305.785 112.543 305.298 113.854 305.335 115.158C305.356 115.931 305.646 116.805 306.366 117.087C307.086 117.37 307.893 116.925 308.431 116.368C309.073 115.703 309.429 115.203 310.246 114.825C311.042 114.456 312.056 114.125 312.593 113.341C312.203 113.911 312.505 114.766 313.101 115.114C313.697 115.46 314.468 115.376 315.087 115.07C315.705 114.764 316.204 114.266 316.69 113.778C316.244 114.891 317.452 116.129 318.65 116.093C319.848 116.057 320.852 115.156 321.518 114.16C320.971 115.076 321.854 116.307 322.9 116.517C323.946 116.728 324.996 116.264 325.963 115.812C325.691 116.216 325.714 116.794 326.018 117.175C326.32 117.556 326.879 117.709 327.333 117.536C326.343 118.976 325.969 120.824 326.321 122.536C326.451 123.167 326.686 123.798 327.13 124.265C328.26 125.454 329.188 124.75 329.862 123.749C330.697 122.508 331.771 122.822 333.104 122.44C334.348 122.084 334.056 120.179 334.054 119.122C334.045 115.236 332.549 111.614 330.496 108.354Z" fill="black"/>
<path d="M287.948 264.305C286.351 253.843 289.497 243.328 291.388 232.914C292.344 227.645 292.983 222.323 293.62 217.005C294.976 205.702 293.89 193.455 293.662 181.964" stroke="#1A2732" stroke-width="0.697333" stroke-miterlimit="10" stroke-linecap="round" stroke-linejoin="round"/>
<path d="M327.372 317.967C327.171 314.207 326.809 310.466 326.536 306.712C326.231 302.517 325.117 298.955 324.239 294.82C322.254 285.48 322.292 275.683 318.828 266.682" stroke="#1A2732" stroke-width="0.697333" stroke-miterlimit="10" stroke-linecap="round" stroke-linejoin="round"/>
<path d="M305.429 127.936C305.664 129.838 305.899 131.74 306.134 133.642C306.683 138.093 308.837 142.373 313.501 143.644C315.493 144.187 317.56 143.848 319.523 143.349C321.168 142.93 322.832 142.385 324.296 141.507C325.875 140.56 327.123 139.234 327.86 137.541C328.256 136.63 328.517 135.679 328.834 134.739C329.135 133.849 329.6 133.07 329.996 132.224C330.85 130.4 330.305 129.011 330.157 127.175C330.017 125.445 329.818 123.646 330.907 122.2C331.174 121.846 331.471 121.488 331.559 121.053C331.696 120.374 331.261 119.678 330.669 119.321C330.076 118.963 329.36 118.881 328.668 118.865C328.126 118.852 327.542 118.889 327.115 119.223C326.823 119.451 326.641 119.793 326.522 120.144C326.001 121.678 326.552 123.281 326.521 124.844C326.496 126.11 326.419 127.415 325.983 128.615C325.104 131.031 323.117 132.385 320.524 132.121C319.471 132.014 318.543 131.418 317.579 130.979C315.347 129.963 312.748 129.799 310.392 130.463C307.142 131.378 307.141 131.38 306.956 127.862C306.867 126.191 306.912 124.515 306.992 122.845C307.055 121.542 306.903 120.067 307.291 118.828C307.42 118.418 307.567 117.994 307.505 117.568C307.443 117.143 307.086 116.724 306.657 116.765C306.374 116.791 306.138 117.012 306.013 117.268C305.888 117.524 305.853 117.812 305.821 118.095C305.429 121.454 305.013 124.562 305.429 127.936Z" fill="black"/>
<path d="M314.321 120.488C314.309 121.99 313.621 123.39 313.202 124.833C313.083 125.243 312.988 125.695 313.161 126.085C313.446 126.727 314.276 126.877 314.978 126.921" stroke="#1A2732" stroke-width="0.697333" stroke-miterlimit="10" stroke-linecap="round" stroke-linejoin="round"/>
<path d="M349.445 259.939C351.381 265.176 356.086 269.296 361.532 270.524" stroke="#1A2732" stroke-width="0.697333" stroke-miterlimit="10" stroke-linecap="round" stroke-linejoin="round"/>
<path d="M376.173 79.3163C376 79.2863 375.823 79.3072 375.67 79.3972C374.768 79.9264 375.934 84.494 375.958 85.4863C375.969 85.9368 376.143 87.1508 375.702 87.4786C374.948 88.0385 374.511 87.118 374.442 86.4988C374.153 83.8469 373.863 81.1956 373.574 78.5436C373.509 77.9537 373.44 77.0967 372.89 76.7585C372.514 76.5262 371.996 76.55 371.643 76.8156C371.023 77.2808 371.056 78.2033 371.148 78.9718C371.45 81.4655 371.752 83.9598 372.054 86.4542C372.145 87.2094 372.207 88.6731 370.984 88.558C370.373 88.5002 370.117 87.7631 370.001 87.1606C369.544 84.7855 369 82.448 368.484 80.1029C368.297 79.2535 368.189 77.0283 367.489 76.4921C367.263 76.3191 366.966 76.2696 366.682 76.2585C366.487 76.2501 366.285 76.2592 366.11 76.3435C365.723 76.5297 365.589 77.0179 365.589 77.4474C365.589 78.8149 365.9 80.0687 366.25 81.386C366.824 83.5449 367.181 85.761 367.314 87.9911C367.372 88.9646 367.054 91.4931 365.821 90.1535C365.18 89.4576 365.061 88.1996 364.733 87.3384C364.022 85.4688 363.308 83.6007 362.595 81.7318C362.109 80.4578 360.13 81.0945 360.573 82.3999C361.347 84.685 362.057 86.9918 362.701 89.3167C363.179 91.0412 364.581 93.8306 364.092 95.6206C363.84 96.5439 362.749 97.2928 361.911 96.8298C361.548 96.6297 361.317 96.2587 361.102 95.9044C360.322 94.6151 359.38 92.1626 358.063 91.3355C357.768 91.15 357.395 91.051 357.067 91.1689C356.635 91.3244 356.402 91.8202 356.407 92.2804C356.419 93.2099 357.21 94.1165 357.603 94.9296C358.166 96.0962 358.742 97.258 359.376 98.3877C360.596 100.56 362.029 102.639 363.893 104.311C364.848 105.168 365.911 105.917 366.72 106.912C368.289 108.846 368.671 111.235 369.231 113.566C369.549 114.886 369.866 116.205 370.183 117.525C370.617 119.329 371.076 121.19 372.194 122.67C373.312 124.151 375.275 125.16 377.043 124.599C378.117 124.258 378.966 123.388 379.479 122.384C379.992 121.381 380.201 120.25 380.308 119.128C380.845 113.479 378.94 107.827 379.312 102.164C379.782 95.0244 379.057 87.7261 377.282 80.7939C377.179 80.3916 377.062 79.9753 376.787 79.6649C376.63 79.4864 376.405 79.356 376.173 79.3163Z" fill="#D79280"/>
<path d="M399.373 152.99C397.261 139.898 393.874 127.004 389.254 114.575C387.402 109.593 387.003 108.003 385.276 107.435C384.556 107.549 383.836 107.662 383.115 107.772C380.728 108.138 378.331 108.488 375.933 108.852C371.441 110.04 366.93 111.159 362.413 112.251C362.182 113.48 362.737 115.203 363.222 118.661C364.996 131.302 366.657 143.959 368.374 156.608C368.975 161.031 369.591 165.513 371.312 169.632C373.032 173.751 376.015 177.535 380.139 179.244C386.398 181.838 394.21 178.711 397.647 172.873C401.094 167.018 400.455 159.697 399.373 152.99Z" fill="#6C78CB"/>
<path d="M338.816 147.181C336.242 147.437 333.331 147.991 331.974 150.194C331.355 151.199 331.168 152.405 331.036 153.579C329.91 163.588 322.799 180.753 335.677 186.024C340.047 187.813 344.99 187.052 349.645 186.263C360.679 184.394 371.711 182.524 382.744 180.655C385.533 180.183 388.368 179.695 390.896 178.426C394.951 176.39 397.913 172.31 398.594 167.823C402.377 142.881 352.962 145.773 338.816 147.181Z" fill="#6C78CB"/>
<path d="M332.997 146.743C332.628 148.615 332.183 150.623 330.768 151.904C330.227 152.393 329.577 152.742 328.926 153.072C326.716 154.192 324.34 155.171 321.862 155.137C318.277 155.089 314.642 151.962 315.226 148.116" stroke="#1A2732" stroke-width="0.697333" stroke-miterlimit="10" stroke-linecap="round" stroke-linejoin="round"/>
<path d="M366.332 147.547C370.319 148.34 374.115 150.084 377.314 152.592" stroke="#1A2732" stroke-width="0.697333" stroke-miterlimit="10" stroke-linecap="round" stroke-linejoin="round"/>
<path d="M365.782 91.3412C369.432 89.8921 373.214 88.7757 377.065 88.01" stroke="#1A2732" stroke-width="0.697333" stroke-miterlimit="10" stroke-linecap="round" stroke-linejoin="round"/>
<path d="M363.31 96.8519C364.429 96.8233 365.515 97.6413 365.795 98.7257" stroke="#1A2732" stroke-width="0.697333" stroke-miterlimit="10" stroke-linecap="round" stroke-linejoin="round"/>
</g>
<mask id="mask7_152_502" style="mask-type:luminance" maskUnits="userSpaceOnUse" x="0" y="0" width="523" height="349">
<path d="M523 0.333313H0V349H523V0.333313Z" fill="white"/>
</mask>
<g mask="url(#mask7_152_502)">
<path d="M486.379 159.128C486.3 158.015 486.16 156.904 485.823 155.843C485.607 155.166 485.268 154.465 484.635 154.144C483.897 153.77 483.073 154.224 482.86 154.988C482.586 154.403 482.311 153.651 481.501 153.759C481.077 153.816 480.708 154.169 480.633 154.591C480.532 154.035 479.809 153.761 479.287 153.978C478.764 154.194 478.45 154.746 478.332 155.299C478.462 154.688 476.919 155.108 476.746 155.236C476.276 155.586 475.931 156.439 475.802 157.001C475.41 158.717 475.267 160.725 475.062 162.486C474.873 164.105 475.335 166.832 474.098 168.126C472.169 170.143 471.702 164.321 471.208 163.19C471.012 162.74 470.76 162.295 470.363 162.007C469.966 161.719 469.394 161.625 468.984 161.894C468.188 162.418 468.953 164.598 469.003 165.389C469.076 166.535 469.161 167.681 469.304 168.82C469.581 171.011 470.063 173.196 471.035 175.191C471.533 176.211 472.156 177.181 472.486 178.269C473.129 180.379 472.645 182.468 472.327 184.569C472.147 185.759 471.967 186.948 471.786 188.137C471.589 189.44 471.389 190.347 472.09 191.497C472.671 192.45 473.416 193.225 474.47 193.651C475.762 194.174 477.29 194.079 478.507 193.399C479.405 192.898 480.117 192.111 480.679 191.25C481.677 189.722 482.238 187.957 482.787 186.216C484.181 181.803 485.577 177.36 486.273 172.773C486.923 168.493 486.648 164.136 486.422 159.832C486.41 159.596 486.396 159.362 486.379 159.128Z" fill="#894D2F"/>
<path d="M478.267 155.073C478.774 159.075 478.539 163.169 477.579 167.086" stroke="black" stroke-width="0.697333" stroke-miterlimit="10" stroke-linecap="round" stroke-linejoin="round"/>
<path d="M480.521 154.46C481.277 158.311 481.283 162.308 480.538 166.161" stroke="black" stroke-width="0.697333" stroke-miterlimit="10" stroke-linecap="round" stroke-linejoin="round"/>
<path d="M482.968 154.835C483.736 158.853 483.802 163.005 483.161 167.045" stroke="black" stroke-width="0.697333" stroke-miterlimit="10" stroke-linecap="round" stroke-linejoin="round"/>
<path d="M484.561 167.921C482.047 166.371 478.68 166.326 476.125 167.807" stroke="black" stroke-width="0.697333" stroke-miterlimit="10" stroke-linecap="round" stroke-linejoin="round"/>
<path d="M421.176 166.548C425.104 166.288 429.019 165.837 432.904 165.195C435.683 164.735 438.599 164.104 440.672 162.196C442.744 160.288 443.509 156.687 441.537 154.675C440.251 153.363 438.252 153.088 436.684 152.128C432.959 149.849 434.634 146.209 433.245 142.957C431.831 139.644 428.074 136.96 424.96 135.443C418.361 132.228 409.778 132.424 404.314 137.755C401.877 140.133 400.275 143.306 397.637 145.461C394.6 147.943 390.558 148.785 387.173 150.766C383.788 152.747 380.941 156.932 382.68 160.447C384.001 163.118 387.277 164.067 390.202 164.63C400.388 166.592 410.826 167.233 421.176 166.548Z" fill="black"/>
<path d="M447.799 217.545C451.025 221.899 454.79 225.926 459.486 230.013C461.386 231.666 463.746 233.41 466.184 232.774C468.116 232.27 469.403 230.328 469.727 228.358C470.051 226.388 469.596 224.38 469.104 222.445C466.377 211.729 461.851 203.665 455.479 194.818C450.361 187.71 445.44 179.246 437.722 174.564C434.368 172.53 430.549 171.424 426.779 170.339C428.062 170.708 429.748 176.531 430.177 177.753C431.017 180.139 431.078 182.431 431.684 184.802C433.126 190.451 436.079 195.923 438.467 201.213C441.27 207.42 444.199 212.685 447.799 217.545Z" fill="#BD6A75"/>
<path d="M381.589 353.2C381.508 364.798 381.516 376.396 381.614 387.994C381.639 390.916 384.344 435.016 383.826 435.117C387.51 434.393 394.373 435.672 397.456 434.214C401.3 432.396 400.085 431.324 402.027 427.378C406.181 418.937 409.076 412.096 410.465 402.578C413.436 382.22 416.406 361.86 419.376 341.502C421.807 324.844 424.242 307.952 422.237 291.237C421.515 285.208 409.962 282.073 405.243 282.753C398.867 283.671 393.362 288.094 389.978 293.575C386.593 299.055 385.102 305.505 384.394 311.908C382.86 325.761 381.688 339.244 381.589 353.2Z" fill="#894D2F"/>
<path d="M426.563 309.948C426.394 308.441 426.224 306.935 426.055 305.428C425.386 299.479 424.913 292.81 428.692 288.168C433.477 282.289 444.976 282.166 451.654 284.495C457.597 286.567 458.291 289.002 459.761 295.113C462.664 307.176 463.635 319.889 464.793 332.208C466.226 347.457 482.132 433.326 451.69 428.229C449.034 427.784 446.688 426.184 444.831 424.233C438.941 418.044 437.696 408.904 436.74 400.413C433.348 370.258 429.956 340.103 426.563 309.948Z" fill="#894D2F"/>
<path d="M464.085 277.779C462.342 270.443 460.547 263.112 458.284 255.916C456.551 250.401 454.526 244.968 452.038 239.754C451.665 239.36 451.28 238.985 450.886 238.621C455.222 234.835 448.285 223.985 446.296 220.433C440.033 209.252 435.655 197.14 430.759 185.296C428.834 180.638 426.798 175.966 423.783 171.926C422.953 170.814 421.979 169.705 420.656 169.285C415.102 167.528 410.312 170.643 406.209 174.081C404.616 175.415 403.013 176.76 401.699 178.369C397.34 183.708 396.742 191.122 396.785 198.015C396.866 210.986 398.54 223.887 399.554 236.818C399.622 237.69 399.69 238.568 399.771 239.443C384.586 246.376 380.028 266.112 377.518 281.862C376.282 289.621 375.367 297.431 374.777 305.265C374.249 312.285 373.215 320.068 374.005 327.084C374.312 329.808 373.045 331.06 375.896 332.667C377.315 333.467 381.42 331.952 381.598 332.082C390.421 338.535 403.628 338.115 412.023 331.115C420.391 339.074 436.065 336.793 441.818 326.78C447.829 334.979 462.938 341.919 469.885 331.166C474.302 324.33 470.705 313.401 469.566 305.953C468.12 296.493 466.298 287.091 464.085 277.779Z" fill="#D9C468"/>
<path d="M448.853 207.299C454.666 222.496 459.966 238.052 463.1 254.04C463.236 254.733 463.384 255.459 463.836 256.002C464.288 256.544 465.149 256.817 465.715 256.395C465.025 256.91 465.441 260.492 465.578 261.309C465.885 263.145 466.242 264.988 466.653 266.81C467.515 270.631 468.332 274.462 469.105 278.302C469.198 278.767 469.291 279.231 469.382 279.697C469.873 282.19 468.105 284.562 465.577 284.814C465.38 284.833 465.182 284.851 464.984 284.865C458.581 285.34 452.184 283.149 446.54 280.286C441.496 277.727 437.296 274.006 434.551 269.024C432.931 266.085 431.851 262.85 430.912 259.638L430.901 259.601C430.263 257.424 429.867 255.184 429.708 252.92C429.03 243.251 428.197 233.592 427.179 223.942C426.578 218.238 425.924 212.557 425.075 206.882C424.221 201.182 423.283 195.493 422.463 189.787C421.656 184.173 422.172 182.317 421.832 176.654C421.741 175.134 420.446 169.819 420.375 168.291C438.364 169.237 443.609 193.589 448.853 207.299Z" fill="#BD6A75"/>
<path d="M420.097 269.256C417.009 278.291 411.239 286.536 402.795 290.806C399.332 292.558 395.549 293.587 391.751 294.381C387.055 295.361 381.613 295.817 377.992 292.671C374.008 289.21 374.094 283.088 374.709 277.847C376.971 258.599 383.168 240.648 384.712 221.341C385.904 206.448 383.188 191.941 389.77 178.552C392.493 173.012 401.007 170.299 409.207 169.089C412.819 168.557 416.076 171.288 416.202 174.937C416.591 186.282 417.612 197.605 418.935 208.88C421.115 227.456 425.838 245.802 421.46 264.504C421.086 266.1 420.632 267.69 420.097 269.256Z" fill="#BD6A75"/>
<path d="M367.022 241.407C367.46 242.456 367.967 243.479 368.508 244.479C370.388 247.956 372.679 251.191 374.962 254.417C377.951 258.639 380.941 262.86 383.929 267.081C384.196 267.457 384.486 267.853 384.915 268.022C385.463 268.238 386.081 268.026 386.615 267.774C391.25 265.586 392.902 260.664 394.291 256.089C394.32 255.994 394.348 255.893 394.323 255.796C394.293 255.684 394.196 255.604 394.104 255.533C393.285 254.903 392.392 254.369 391.45 253.945C389.093 252.883 387.655 252.207 386.059 250.19C383.815 247.354 382.626 243.811 380.835 240.676C378.991 237.449 376.8 234.378 373.963 231.947C372.536 230.723 370.709 229.62 368.877 230.047C367.475 230.374 366.391 231.579 365.915 232.938C365.439 234.297 365.495 235.788 365.747 237.206C366.004 238.65 366.455 240.05 367.022 241.407Z" fill="#894D2F"/>
<path d="M404.968 170.472C402.209 170.691 399.477 171.101 396.91 172.103C395.174 172.78 393.55 173.716 391.847 174.473C386.914 176.666 381.585 177.7 376.79 180.225C371.613 182.951 366.51 186.329 362.118 190.195C356.02 195.563 351.096 202.784 350.365 210.875C349.838 216.703 351.506 222.521 353.778 227.913C356.734 234.934 360.752 241.506 365.638 247.35C367.207 249.226 367.941 250.588 370.51 251.166C376.164 252.438 389.511 249.263 387.478 241.38C384.594 230.202 380.843 219.247 376.269 208.647C383.886 205.953 391.062 202.163 398.206 198.387C402.565 196.083 407.003 193.721 410.443 190.187C412.516 188.058 414.182 185.534 415.326 182.792C416.314 180.425 417.411 176.414 416.563 173.861C415.416 170.41 411.888 170.111 408.781 170.253C407.513 170.311 406.238 170.371 404.968 170.472Z" fill="#BD6A75"/>
<path d="M402.01 150.907C401.416 149.347 403.323 146.451 404.164 145.218C406.394 141.946 408.344 137.38 412.633 136.641C416.208 136.024 420.839 136.449 423.901 138.599C426.745 140.597 429.574 141.995 427.832 145.903C427.203 147.314 426.162 148.505 425.001 149.518C422.147 152.011 418.497 153.528 414.742 153.953C410.988 154.377 407.14 153.729 403.658 152.252C402.987 151.968 402.271 151.591 402.01 150.907Z" fill="black"/>
<path d="M425.393 164.369C425.264 166.775 424.917 169.699 427.342 171.142C426.77 172.805 425.414 174.13 423.832 174.9C422.251 175.67 420.458 175.925 418.699 175.896C415.457 175.843 412.114 174.76 409.918 172.375C410.104 172.576 410.756 171.24 410.789 171.121C410.959 170.502 410.789 169.894 410.818 169.269C410.873 168.088 411.041 166.941 411.05 165.744C411.076 162.431 411.151 159.117 411.377 155.811C412.552 153.782 415.653 152.357 417.709 151.94C422.265 151.016 425.168 154.383 425.532 158.171C425.549 158.422 425.562 158.673 425.572 158.925C425.574 159.316 425.551 159.709 425.498 160.099C425.293 161.608 425.351 162.96 425.393 164.369Z" fill="#894D2F"/>
<path d="M427.933 149.855C428.124 149.816 428.321 149.795 428.523 149.795C430.163 149.794 431.493 151.123 431.494 152.765C431.495 154.406 430.167 155.737 428.527 155.738C428.201 155.738 427.889 155.684 427.596 155.588C427.704 153.677 427.807 151.765 427.933 149.855Z" fill="#894D2F"/>
<mask id="mask8_152_502" style="mask-type:luminance" maskUnits="userSpaceOnUse" x="408" y="151" width="21" height="25">
<path d="M410.811 164.039C410.761 167.178 410.148 170.438 408.248 172.926C414.71 175.774 422.381 175.695 428.784 172.713C426.064 170.634 425.174 166.844 425.441 163.415C425.547 162.04 425.809 160.674 425.81 159.293C425.812 156.465 423.663 152.914 420.877 151.995C419.739 151.62 418.5 151.703 417.325 151.941C415.538 152.303 413.778 153.047 412.498 154.355C409.943 156.965 410.864 160.768 410.811 164.039Z" fill="white"/>
</mask>
<g mask="url(#mask8_152_502)">
<path d="M411.194 160.726C414.407 161.356 417.458 162.164 420.756 161.685C421.795 161.534 424.196 160.875 425.585 160.084C425.569 162.086 425.368 164.095 425.322 166.094C421.476 166.718 417.514 167.078 414.226 165.114C412.736 164.224 411.091 162.469 411.197 160.838L411.194 160.726Z" fill="#48181E"/>
</g>
<path d="M428.615 153.436C428.441 155.697 428.033 157.971 427.07 160.022C426.106 162.072 424.541 163.893 422.495 164.842C418.747 166.581 414.054 164.964 411.354 161.821C408.654 158.678 407.671 154.356 407.637 150.2C407.613 147.266 408.055 144.223 409.636 141.758C411.261 139.222 414.067 137.491 417.049 137.186C420.108 136.872 424.455 138.247 426.254 140.964C428.571 144.465 428.927 149.375 428.615 153.436Z" fill="#894D2F"/>
<path d="M404.514 152.783C404.515 154.424 405.845 155.754 407.484 155.752C409.124 155.752 410.452 154.42 410.451 152.779C410.45 151.138 409.12 149.808 407.481 149.81C405.841 149.811 404.512 151.142 404.514 152.783Z" fill="#894D2F"/>
<path d="M406.534 151.123C407.311 150.893 408.176 151.418 408.502 152.165C408.829 152.911 408.697 153.797 408.337 154.528" stroke="black" stroke-width="0.697333" stroke-miterlimit="10" stroke-linecap="round" stroke-linejoin="round"/>
<path d="M414.475 145.225C414.065 145.824 413.556 146.356 412.902 146.656C412.171 146.992 411.243 147.057 410.773 147.71C410.588 147.965 410.506 148.278 410.425 148.582C410.237 149.301 410.049 150.02 409.86 150.739C409.33 150.343 408.71 150.061 408.062 149.928C407.503 149.813 406.999 149.985 406.441 149.834C405.361 149.543 403.895 148.231 403.871 147.104C403.853 146.259 404.401 145.523 404.888 144.834C406.022 143.23 406.956 141.489 408.091 139.886C409.225 138.282 410.6 136.788 412.355 135.918C413.12 135.538 414.842 134.808 415.678 134.885C416.346 134.946 416.983 135.209 417.651 135.26C418.261 135.307 418.87 135.174 419.482 135.18C421.599 135.201 424.041 137.078 425.668 138.305C427.451 139.649 429.232 141.087 430.391 142.995C431.091 144.148 431.462 145.395 431.487 146.731C431.493 147.102 431.257 150.23 431.394 150.289C430.859 150.06 430.286 149.917 429.707 149.864C429.288 149.826 428.749 149.957 428.412 149.654C428.086 149.361 427.969 148.633 427.738 148.248C427.439 147.749 427.063 147.296 426.625 146.914C425.654 146.065 424.415 145.573 423.431 144.737C422.394 143.857 421.682 142.601 421.457 141.26C421.396 140.899 421.447 139.578 421.023 139.443C420.944 139.417 420.486 139.664 420.385 139.695C420.073 139.788 419.734 139.807 419.418 139.903C418.122 140.295 416.952 141.117 416.17 142.225C415.632 142.988 415.276 143.863 414.815 144.675C414.71 144.861 414.597 145.045 414.475 145.225Z" fill="black"/>
<path d="M423.368 158.219C422.398 160.435 418.712 161.002 416.615 158.588L423.368 158.219Z" fill="white"/>
<path d="M419.645 149.205C419.661 150.363 420.092 151.45 420.396 152.551C420.573 153.191 421.286 155.22 419.92 154.575" stroke="black" stroke-width="0.697333" stroke-miterlimit="10" stroke-linecap="round" stroke-linejoin="round"/>
<path d="M384.464 205.272C385.526 204.578 386.158 203.409 386.824 202.329C388.103 200.255 389.65 198.347 391.416 196.669" stroke="black" stroke-width="0.697333" stroke-miterlimit="10" stroke-linecap="round" stroke-linejoin="round"/>
<path d="M383.744 228.649C384.439 233.317 387.043 237.581 387.43 242.285C387.611 244.491 387.135 246.998 385.314 248.256" stroke="black" stroke-width="0.697333" stroke-miterlimit="10" stroke-linecap="round" stroke-linejoin="round"/>
<path d="M460.524 199.205C462.825 193.721 464.885 186.261 470.521 183.16C473.129 181.725 476.238 181.595 479.213 181.644C480.909 181.671 482.734 181.792 484.058 182.852C485.493 184.001 485.971 185.961 486.158 187.79C486.605 192.161 485.895 196.539 484.987 200.807C484.116 204.905 483.252 209.031 482.136 213.074C481.087 216.869 479.554 220.319 478.234 223.989C477.112 227.11 475.548 230.264 472.565 231.983C468.364 234.405 463.678 234.719 459.627 231.624C456.617 229.324 454.886 225.765 454.319 222.144C453.116 214.477 456.683 208.356 459.57 201.478C459.887 200.72 460.205 199.962 460.524 199.205Z" fill="#BD6A75"/>
<path d="M439.998 189.795C443.097 200.711 449.718 210.306 453.455 221.02C454.539 224.124 455.427 226.316 456.402 229.457" stroke="black" stroke-width="0.697333" stroke-miterlimit="10" stroke-linecap="round" stroke-linejoin="round"/>
<path d="M406.161 169.689C406.439 169.339 406.671 168.972 407.007 168.674C407.124 168.57 407.169 168.539 407.358 168.415C407.522 168.309 407.689 168.208 407.855 168.105C408.603 167.64 409.244 167.09 409.849 166.452C410.117 166.168 410.386 165.885 410.683 165.63C410.76 165.564 410.822 165.514 410.99 165.41C411.006 165.401 411.018 165.396 411.033 165.387C410.782 165.536 414.239 169.485 414.543 169.823C415.835 171.26 417.117 172.739 417.966 174.49C417.262 176.851 416.91 179.338 415.961 181.619C415.416 182.928 414.413 181.01 413.947 180.451C413.172 179.52 412.396 178.588 411.621 177.657C410.529 176.346 409.437 175.034 408.386 173.691C407.861 173.019 407.345 172.34 406.846 171.649C406.686 171.428 406.162 170.445 405.736 170.175C405.884 170.018 406.027 169.859 406.161 169.689Z" fill="#BD6A75"/>
<path d="M420.579 172.136C420.729 171.959 420.908 171.803 421.084 171.65C422.733 170.222 425.374 168.602 425.324 166.094C426.491 167.834 428.006 170.15 429.693 171.391C428.928 171.573 428.576 172.428 428.235 173.137C427.555 174.544 426.509 175.72 425.577 176.96C424.688 178.142 424.228 179.499 423.427 180.687C423.321 180.845 423.222 181.012 423.074 181.132C422.926 181.251 422.713 181.313 422.543 181.228C422.377 181.145 422.3 180.952 422.25 180.773C422.057 180.078 422.204 179.425 421.972 178.752C421.692 177.941 421.386 177.139 421.115 176.326C420.777 175.314 419.851 173.547 420.333 172.513C420.396 172.375 420.481 172.251 420.579 172.136Z" fill="#BD6A75"/>
<path d="M416.655 179.557C416.337 180.27 415.55 181.643 415.14 182.309C412.928 179.553 410.716 176.797 408.505 174.042C407.477 172.761 406.417 171.414 406.089 169.805" stroke="black" stroke-width="0.697333" stroke-miterlimit="10" stroke-linecap="round" stroke-linejoin="round"/>
<path d="M421.622 178.202C422.264 179.297 423.283 180.796 423.925 181.891C424.379 180.623 424.831 179.356 425.284 178.088C425.516 177.441 425.748 176.791 426.066 176.182C426.453 175.442 426.962 174.773 427.374 174.046C427.968 173.001 428.356 171.84 428.512 170.648" stroke="black" stroke-width="0.697333" stroke-miterlimit="10" stroke-linecap="round" stroke-linejoin="round"/>
<path d="M427.497 202.743C427.577 202.46 427.72 202.214 427.927 202.005L428.266 201.743C428.527 201.592 428.809 201.516 429.111 201.515C429.341 201.506 429.556 201.554 429.755 201.659C429.962 201.727 430.142 201.842 430.293 202.005C430.457 202.156 430.572 202.336 430.639 202.543C430.744 202.743 430.792 202.957 430.784 203.188C430.763 203.336 430.744 203.484 430.724 203.632C430.644 203.916 430.501 204.162 430.293 204.371L429.955 204.632C429.694 204.784 429.412 204.86 429.11 204.861C428.88 204.869 428.665 204.821 428.465 204.717C428.257 204.649 428.078 204.534 427.927 204.371C427.764 204.22 427.648 204.04 427.581 203.833C427.476 203.633 427.428 203.418 427.436 203.188C427.457 203.04 427.477 202.891 427.497 202.743Z" fill="black"/>
<path d="M429.252 214.993C429.335 214.696 429.485 214.439 429.702 214.221C429.82 214.13 429.938 214.039 430.056 213.948C430.329 213.79 430.623 213.71 430.939 213.71C431.18 213.701 431.404 213.751 431.613 213.86C431.83 213.931 432.017 214.051 432.176 214.222C432.346 214.38 432.466 214.568 432.537 214.785C432.646 214.993 432.696 215.218 432.687 215.459C432.666 215.613 432.646 215.768 432.625 215.924C432.542 216.22 432.392 216.477 432.175 216.696C432.057 216.787 431.939 216.878 431.821 216.969C431.548 217.127 431.254 217.207 430.938 217.207C430.697 217.217 430.473 217.166 430.264 217.057C430.047 216.986 429.86 216.866 429.701 216.696C429.531 216.537 429.411 216.35 429.34 216.133C429.231 215.924 429.18 215.7 429.19 215.459C429.21 215.303 429.231 215.148 429.252 214.993Z" fill="black"/>
<path d="M431.559 227.081C431.645 226.773 431.801 226.506 432.026 226.279C432.149 226.184 432.272 226.09 432.394 225.995C432.678 225.83 432.984 225.748 433.312 225.747C433.562 225.737 433.796 225.789 434.012 225.903C434.237 225.976 434.433 226.101 434.597 226.279C434.774 226.443 434.9 226.638 434.973 226.864C435.087 227.081 435.139 227.314 435.13 227.564C435.108 227.726 435.087 227.887 435.065 228.048C434.979 228.356 434.823 228.623 434.598 228.85C434.475 228.944 434.352 229.039 434.23 229.134C433.946 229.299 433.641 229.381 433.312 229.382C433.062 229.392 432.828 229.34 432.612 229.226C432.387 229.153 432.191 229.027 432.027 228.85C431.85 228.686 431.724 228.491 431.651 228.265C431.537 228.048 431.485 227.816 431.495 227.565C431.516 227.403 431.537 227.242 431.559 227.081Z" fill="black"/>
<path d="M434.023 240.048C436.286 240.048 436.29 243.565 434.023 243.565C431.761 243.565 431.756 240.048 434.023 240.048Z" fill="black"/>
<path d="M433.735 255.168C433.765 255.058 433.81 254.949 433.868 254.841C434.154 254.32 434.782 254.002 435.37 254.059C436.811 254.202 437.204 256.211 435.956 256.91C434.757 257.582 433.398 256.38 433.735 255.168Z" fill="black"/>
<path d="M356.07 206.145C355.22 206.846 354.34 207.584 353.897 208.593C353.453 209.601 353.598 210.961 354.517 211.568" fill="black"/>
<path d="M467.731 228.989C467.614 229.761 466.854 230.334 466.074 230.392C465.296 230.449 464.533 230.07 463.968 229.53" fill="black"/>
<path d="M459.658 200.859C459.961 205.156 461.031 209.715 461.804 213.953" stroke="black" stroke-width="0.697333" stroke-miterlimit="10" stroke-linecap="round" stroke-linejoin="round"/>
<path d="M394.583 253.431C394.832 258.653 392.08 263.914 387.649 266.688C386.155 267.623 384.502 268.287 383.01 269.227" stroke="black" stroke-width="0.697333" stroke-miterlimit="10" stroke-linecap="round" stroke-linejoin="round"/>
<path d="M454.199 246.197C454.3 247.271 454.551 248.335 454.97 249.33C456.086 251.973 458.36 254.008 460.924 255.295C462.41 256.041 464.009 256.565 465.649 256.839" stroke="black" stroke-width="0.697333" stroke-miterlimit="10" stroke-linecap="round" stroke-linejoin="round"/>
<path d="M412.076 331.151C412.793 328.506 413.159 325.765 413.159 323.024" stroke="black" stroke-width="0.697333" stroke-miterlimit="10" stroke-linecap="round" stroke-linejoin="round"/>
<path d="M442.056 326.817C441.875 323.024 441.695 319.231 441.514 315.439" stroke="black" stroke-width="0.697333" stroke-miterlimit="10" stroke-linecap="round" stroke-linejoin="round"/>
<path d="M381.557 332.057C381.699 327.27 382.21 322.493 383.084 317.784" stroke="black" stroke-width="0.697333" stroke-miterlimit="10" stroke-linecap="round" stroke-linejoin="round"/>
<path d="M186.821 321.591C187.471 321.5 187.724 320.711 187.838 320.065C188.045 318.899 188.25 317.734 188.457 316.568C188.534 316.135 188.761 315.582 189.197 315.64C189.614 315.695 189.711 316.248 189.702 316.668C189.659 318.814 189.615 320.96 189.572 323.105C189.56 323.706 189.561 324.354 189.914 324.84C190.267 325.326 191.114 325.476 191.437 324.97C191.561 324.775 191.581 324.533 191.596 324.302C191.689 322.927 191.782 321.553 191.875 320.176C191.915 319.557 191.671 316.555 192.698 316.71C193.609 316.848 193.222 319.598 193.185 320.211C193.087 321.828 192.882 323.397 193.127 325.01C193.179 325.349 193.247 325.695 193.434 325.982C193.622 326.268 193.956 326.483 194.295 326.436C194.602 326.393 194.85 326.144 194.978 325.861C195.105 325.578 195.135 325.262 195.162 324.953C195.275 323.688 195.388 322.424 195.502 321.159C195.586 320.218 195.488 318.736 196.136 317.963C196.331 317.73 196.717 317.633 196.942 317.837C197.107 317.986 197.131 318.232 197.144 318.453C197.242 320.064 197.339 321.674 197.436 323.284C197.463 323.722 197.496 324.182 197.737 324.549C197.978 324.916 198.501 325.137 198.869 324.9C199.157 324.715 199.246 324.34 199.304 324.003C199.826 320.986 199.558 317.959 199.881 314.961C199.956 314.265 199.981 309.233 201.244 309.591C201.505 309.665 201.66 309.926 201.775 310.171C202.18 311.042 202.394 311.989 202.744 312.885C203.093 313.781 203.613 314.661 204.44 315.149C204.771 315.345 205.221 315.458 205.516 315.213C205.749 315.019 205.786 314.679 205.772 314.377C205.722 313.333 205.258 312.36 204.95 311.361C204.314 309.297 204.357 307.108 203.855 305.018C203.36 302.959 202.601 301.065 202.806 298.893C203.136 295.396 204.246 292.022 204.83 288.559C205.415 285.095 205.423 281.35 203.699 278.289C202.715 276.542 201.002 275.025 198.997 274.989C197.024 274.953 195.28 276.36 194.203 278.014C193.088 279.729 192.504 281.73 192.036 283.722C190.634 289.693 190.147 295.824 189 301.841C187.876 307.737 186.11 313.496 185.653 319.51C185.618 319.968 185.592 320.444 185.764 320.87C185.936 321.297 186.366 321.655 186.821 321.591Z" fill="#D79280"/>
<path d="M307.785 350.587C309.108 360.484 312.984 374.726 302.446 381.055C298.123 383.65 292.799 383.99 287.784 383.476C282.395 382.923 276.546 381.049 273.893 376.325C272.665 374.136 272.278 371.59 271.913 369.106C269.95 355.748 267.986 342.391 266.023 329.033C264.815 320.817 265.463 302.95 258.295 298.062C260.071 327.489 263.127 357.019 265.19 386.476C255.278 386.54 245.367 386.605 235.455 386.671C234.331 386.678 233.103 386.65 232.206 385.925C231.393 385.267 231.06 384.2 230.776 383.202C221.744 351.423 216.714 318.677 215.849 286.02C215.256 263.667 223.288 241.902 247.885 238.711C259.609 237.191 272.216 241.499 280.977 250.02C290.298 259.086 294.844 271.881 298.063 284.34C302.576 301.809 305.535 319.948 306.708 337.809C307.016 342.488 307.236 346.476 307.785 350.587Z" fill="#6C78CB"/>
<path d="M259.945 275.347C260.618 277.606 260.983 279.956 261.027 282.313C261.049 283.493 260.978 284.723 260.412 285.76C259.847 286.797 258.661 287.579 257.506 287.331" stroke="black" stroke-width="0.697333" stroke-miterlimit="10" stroke-linecap="round" stroke-linejoin="round"/>
<path d="M255.63 271.579C256.551 279.416 258.122 290.144 259.044 297.98" stroke="black" stroke-width="0.697333" stroke-miterlimit="10" stroke-linecap="round" stroke-linejoin="round"/>
<path d="M232.852 185.058C232.949 185.01 233.046 184.963 233.143 184.917C244.05 179.692 257.936 180.789 269.634 181.41C276.94 181.798 286.16 182.312 291.046 188.295C298.169 197.016 294.061 207.33 294.056 217.071C294.049 230.839 294.192 244.213 292.111 257.896C291.439 262.308 290.492 266.96 287.449 270.226C283.647 274.307 277.595 275.185 272.034 275.622C263.2 276.316 254.327 276.506 245.471 276.192C239.709 275.987 233.825 275.538 228.53 273.256C212.6 266.388 209.839 240.775 212.795 225.919C214.582 216.943 215.871 206.761 220.023 198.487C222.85 192.857 227.215 187.855 232.852 185.058Z" fill="#95A167"/>
<path d="M236.028 205.697C236.673 200.578 236.489 195.41 236.558 190.261C236.587 188.157 236.675 186.051 236.565 183.952C232.918 185.171 229.326 186.552 225.801 188.09C222.711 189.438 219.637 190.93 217.055 193.099C209.504 199.447 205.693 209.966 202.306 218.927C194.912 238.487 190.168 259.463 186.322 280.009C185.661 283.541 185.061 287.289 186.346 290.644C188.249 295.608 193.762 298.26 199.02 299.044C201.087 299.353 203.239 299.443 205.228 298.802C210.026 297.255 212.512 292.074 214.23 287.334C219.09 273.928 220.691 259.685 223.925 245.863C227.112 232.246 234.289 219.615 236.028 205.697Z" fill="#95A167"/>
<path d="M273.167 161.328C273.499 158.77 272.643 156.21 271.599 153.851C270.701 151.821 269.627 149.821 268.028 148.281C263.801 144.211 255.648 144.527 250.985 147.803C247.721 150.095 244.473 151.701 246.472 156.187C247.195 157.807 248.389 159.174 249.722 160.337C251.751 162.11 254.193 163.541 256.764 164.366C258.564 164.943 260.04 166.307 261.965 166.534C263.289 166.691 264.623 166.424 265.966 166.552C269.677 166.904 272.633 165.445 273.167 161.328Z" fill="black"/>
<path d="M249.273 177.383C249.319 178.259 249.357 179.133 249.363 180.006C249.368 180.902 249.376 181.811 249.192 182.692C249.098 183.144 248.953 183.589 248.725 183.992C248.619 184.179 247.955 184.806 248.006 184.974C248.027 185.042 248.085 185.09 248.14 185.134C248.799 185.66 249.466 186.148 250.168 186.617C250.949 187.139 251.793 187.565 252.676 187.888C254.445 188.537 256.364 188.774 258.239 188.581C260.053 188.396 261.735 187.765 263.339 186.917C264.115 186.506 264.864 186.044 265.578 185.533C265.943 185.272 266.3 184.998 266.647 184.711C266.79 184.593 267.408 183.893 267.562 183.905C266.985 183.86 266.482 182.819 266.262 182.356C265.956 181.713 265.799 181.013 265.722 180.308C265.565 178.882 265.727 177.448 265.702 176.019C265.677 174.575 265.639 173.132 265.583 171.689C265.554 170.967 265.521 170.246 265.483 169.525C265.457 169.048 265.599 167.966 265.363 167.559C264.014 165.23 260.455 163.594 258.095 163.115C252.864 162.054 249.532 165.919 249.114 170.268C249.094 170.556 249.079 170.845 249.069 171.133C249.066 171.582 249.093 172.032 249.153 172.481C249.386 174.214 249.32 175.766 249.273 177.383Z" fill="#D79280"/>
<path d="M265.572 173.201C261.884 173.925 258.382 174.852 254.596 174.302C253.403 174.128 250.646 173.373 249.053 172.465C249.071 174.763 249.302 177.07 249.353 179.364C253.769 180.08 258.316 180.494 262.09 178.239C263.801 177.216 265.689 175.203 265.568 173.331L265.572 173.201Z" fill="#B66754"/>
<path d="M245.572 164.833C245.772 167.429 246.239 170.039 247.346 172.393C248.453 174.746 250.248 176.837 252.597 177.926C256.899 179.922 262.287 178.066 265.387 174.458C268.486 170.85 269.615 165.889 269.654 161.118C269.681 157.749 269.174 154.257 267.359 151.427C265.493 148.517 262.272 146.53 258.85 146.179C255.338 145.819 250.349 147.397 248.284 150.517C245.621 154.535 245.213 160.171 245.572 164.833Z" fill="#D79280"/>
<path d="M273.239 164.084C273.237 165.968 271.711 167.494 269.829 167.493C267.947 167.492 266.421 165.964 266.423 164.08C266.424 162.196 267.951 160.67 269.834 160.671C271.715 160.671 273.24 162.2 273.239 164.084Z" fill="#D79280"/>
<path d="M249.157 165.047C249.156 166.931 247.629 168.457 245.747 168.456C243.865 168.455 242.34 166.927 242.341 165.043C242.343 163.159 243.869 161.633 245.752 161.634C247.633 161.635 249.158 163.163 249.157 165.047Z" fill="#D79280"/>
<path d="M270.92 162.177C270.028 161.914 269.035 162.517 268.661 163.374C268.285 164.231 268.437 165.248 268.85 166.087" stroke="black" stroke-width="0.697333" stroke-miterlimit="10" stroke-linecap="round" stroke-linejoin="round"/>
<path d="M243.944 165.356C243.501 165.389 242.772 164.983 242.478 164.694C242.051 164.275 242.159 163.659 242.205 163.018C242.308 161.585 242.66 160.157 242.484 158.714C242.333 157.479 241.798 156.284 241.889 155.043C241.979 153.792 242.69 152.685 243.14 151.514C243.588 150.349 243.791 149.077 244.442 148.011C245.387 146.462 247.138 145.585 248.885 145.098C250.633 144.61 252.46 144.432 254.184 143.865C255.437 143.453 256.724 142.828 258.013 143.11C258.724 143.266 259.345 143.686 259.931 144.117C261.384 145.189 262.258 146.295 262.856 147.98C263.516 149.839 262.982 152.109 261.462 153.355C259.762 154.749 257.321 155.532 255.211 155.969C253.328 156.359 251.381 156.652 249.702 157.594C247.794 158.665 246.385 160.523 245.622 162.586C245.297 163.463 244.946 165.28 243.944 165.356Z" fill="black"/>
<path d="M264.515 153.374C264.987 154.204 265.144 155.137 265.592 155.982C266.125 156.985 266.607 158.045 266.842 159.162C266.909 159.484 267.009 159.795 266.991 160.129C266.973 160.468 266.885 160.802 266.898 161.144C266.908 161.394 267.004 161.677 267.239 161.765C267.477 161.855 267.732 161.703 267.945 161.564C268.66 161.095 269.462 160.669 270.317 160.696C270.771 160.71 271.219 160.852 271.674 160.829C273.046 160.761 272.826 159.215 272.947 158.258C272.997 157.86 273.137 157.479 273.201 157.083C273.342 156.224 273.121 155.351 272.902 154.509C272.682 153.662 272.457 152.804 272.011 152.052C271.586 151.333 270.978 150.742 270.502 150.056C269.951 149.259 269.587 148.35 269.1 147.513C268.612 146.677 267.955 145.881 267.05 145.534C266.644 145.377 266.209 145.32 265.778 145.263C263.246 144.93 260.595 144.181 258.064 144.847C257.275 145.055 256.379 145.411 255.942 146.149C255.735 146.499 255.665 146.884 255.692 147.287C255.706 147.496 255.987 148.803 256.226 148.803C256.329 148.983 256.457 149.155 256.631 149.266C256.893 149.433 257.22 149.44 257.529 149.458C260.073 149.603 262.536 150.862 264.154 152.846C264.294 153.017 264.414 153.194 264.515 153.374Z" fill="black"/>
<path d="M255.708 161.97C255.858 162.318 255.82 162.723 255.696 163.083C255.573 163.442 255.37 163.767 255.19 164.101C254.981 164.488 254.8 164.891 254.65 165.305C254.239 166.434 254.577 167.451 255.762 167.842" stroke="black" stroke-width="0.697333" stroke-miterlimit="10" stroke-linecap="round" stroke-linejoin="round"/>
<path d="M258.633 171.237C258.63 171.176 258.705 171.27 258.67 171.319C257.942 172.32 256.667 172.893 255.436 172.772C254.204 172.651 253.064 171.842 252.544 170.72" stroke="black" stroke-width="0.697333" stroke-miterlimit="10" stroke-linecap="round" stroke-linejoin="round"/>
<path d="M317.217 228.08C319.782 235.6 320.962 241.902 316.888 249.227C314.785 253.009 311.11 256.169 306.801 256.571C302.683 256.954 298.645 254.756 295.901 251.661C292.171 247.454 290.287 241.657 288.256 236.515C285.929 230.622 283.399 224.813 280.9 218.992C276.942 209.775 271.919 198.586 274.29 188.3C276.463 178.874 288.213 183.858 293.422 188.128C298.139 191.995 301.433 197.304 304.321 202.676C307.345 208.302 309.609 214.396 313.152 219.711C314.835 222.237 316.197 225.09 317.217 228.08Z" fill="#95A167"/>
<path d="M293.004 246.894C288.858 234.885 285.571 222.58 283.177 210.104" stroke="black" stroke-width="0.697333" stroke-miterlimit="10" stroke-linecap="round" stroke-linejoin="round"/>
<path d="M219.913 266.675C226.415 240.668 226.506 226.017 232.889 209.645" stroke="black" stroke-width="0.697333" stroke-miterlimit="10" stroke-linecap="round" stroke-linejoin="round"/>
<path d="M342.551 182.309C341.961 182.022 341.31 182.535 340.855 183.007C340.033 183.859 339.211 184.711 338.39 185.563C338.085 185.88 337.587 186.21 337.258 185.92C336.943 185.641 337.171 185.128 337.412 184.784C338.646 183.029 339.881 181.273 341.114 179.517C341.459 179.026 341.819 178.487 341.798 177.887C341.777 177.287 341.158 176.689 340.607 176.929C340.395 177.022 340.244 177.211 340.102 177.395C339.258 178.483 338.414 179.572 337.568 180.662C337.188 181.153 335.715 183.78 334.95 183.077C334.271 182.454 336.127 180.389 336.5 179.901C337.484 178.614 338.531 177.428 339.228 175.952C339.374 175.642 339.511 175.317 339.515 174.974C339.519 174.632 339.363 174.267 339.055 174.117C338.776 173.981 338.432 174.05 338.168 174.213C337.904 174.376 337.703 174.622 337.508 174.863C336.708 175.849 335.908 176.835 335.108 177.821C334.513 178.554 333.766 179.839 332.798 180.118C332.506 180.202 332.131 180.068 332.059 179.773C332.006 179.557 332.123 179.34 332.235 179.148C333.053 177.757 333.871 176.368 334.69 174.977C334.912 174.599 335.142 174.198 335.146 173.76C335.151 173.321 334.841 172.846 334.402 172.836C334.06 172.829 333.778 173.09 333.541 173.338C331.424 175.55 329.956 178.21 328.015 180.516C327.358 181.296 324.49 185.925 323.424 183.388C322.57 181.355 324.083 179.068 322.152 177.312C321.807 176.998 321.26 176.854 320.867 177.105C320.389 177.409 320.366 178.093 320.449 178.653C320.635 179.9 320.026 180.884 319.811 182.119C318.458 189.867 316.253 197.462 313.36 204.793C317.528 207.891 321.663 211.039 325.867 214.089C326.387 207.346 326.903 199.907 331.859 195.357C335.522 191.993 339.268 188.602 342.36 184.686C342.644 184.326 342.931 183.945 343.026 183.495C343.12 183.047 342.964 182.51 342.551 182.309Z" fill="#D79280"/>
<path d="M313.704 200.25C312.428 200.84 311.349 201.951 310.407 203.041C301.979 212.798 297.372 228.425 297.014 241.247C296.916 244.787 297.245 248.451 298.897 251.584C300.55 254.717 303.76 257.216 307.302 257.188C308.886 257.176 310.434 256.672 311.849 255.962C323.325 250.209 325.69 234.761 328.168 223.648C329.064 219.624 329.813 215.394 328.704 211.424C327.332 206.515 323.228 202.713 318.579 200.621C317.54 200.153 316.425 199.75 315.287 199.831C314.728 199.87 314.201 200.02 313.704 200.25Z" fill="#95A167"/>
<path d="M228.988 275.109C227.958 277.699 226.444 280.132 224.355 281.977C222.266 283.823 219.573 285.048 216.787 285.111" stroke="black" stroke-width="0.697333" stroke-miterlimit="10" stroke-linecap="round" stroke-linejoin="round"/>
<path d="M262.429 133.636C264.453 134.044 266.214 135.574 266.901 137.521C268.914 143.223 261.236 148.828 256.456 145.257C254.119 143.512 251.444 140.218 253.521 137.505C255.401 135.049 259.326 133.012 262.429 133.636Z" fill="black"/>
<path d="M247.009 183.521C249.106 187.04 253.412 188.923 257.499 188.655C261.587 188.388 265.394 186.19 268.171 183.178" stroke="#1A2732" stroke-width="0.697333" stroke-miterlimit="10" stroke-linecap="round" stroke-linejoin="round"/>
<path d="M306.962 207.679C303.339 216.637 300.4 223.541 300.46 233.204" stroke="black" stroke-width="0.697333" stroke-miterlimit="10" stroke-linecap="round" stroke-linejoin="round"/>
<path d="M332.146 179.63C333.244 180.975 334.342 182.322 335.44 183.668C336.106 184.484 336.815 185.465 336.581 186.492" stroke="black" stroke-width="0.697333" stroke-miterlimit="10" stroke-linecap="round" stroke-linejoin="round"/>
<path d="M324.073 184.077C324.237 185.039 324.402 186.002 324.566 186.965" stroke="black" stroke-width="0.697333" stroke-miterlimit="10" stroke-linecap="round" stroke-linejoin="round"/>
<path d="M282.824 274.747C286.75 278.463 292.165 280.559 297.569 280.455" stroke="black" stroke-width="0.697333" stroke-miterlimit="10" stroke-linecap="round" stroke-linejoin="round"/>
<path d="M255.384 218.31C252.641 216.025 249.72 213.962 246.637 212.162C245.471 211.482 244.417 213.289 245.581 213.968C248.51 215.678 251.299 217.618 253.905 219.789C254.339 220.151 254.959 220.214 255.384 219.789C255.756 219.418 255.82 218.674 255.384 218.31Z" fill="#D9C468"/>
<path d="M270.388 233.986C269.876 233.716 269.263 233.863 268.957 234.361C267.994 235.927 267.03 237.491 266.067 239.057C265.78 239.523 265.95 240.228 266.442 240.488C266.953 240.758 267.567 240.611 267.873 240.113C268.836 238.547 269.8 236.982 270.763 235.417C271.05 234.95 270.879 234.245 270.388 233.986Z" fill="#D9C468"/>
<path d="M243.366 235.62C243.306 235.059 242.929 234.574 242.32 234.574C241.802 234.574 241.213 235.055 241.274 235.62C241.535 238.026 241.794 240.433 242.054 242.839C242.115 243.4 242.491 243.885 243.1 243.885C243.618 243.885 244.207 243.404 244.146 242.839C243.886 240.433 243.627 238.027 243.366 235.62Z" fill="#D9C468"/>
<path d="M256.421 260.618C256.243 260.068 255.703 259.745 255.134 259.887C253.69 260.248 252.245 260.609 250.8 260.971C250.268 261.103 249.898 261.729 250.069 262.257C250.247 262.807 250.787 263.13 251.356 262.988C252.8 262.627 254.245 262.265 255.69 261.904C256.221 261.772 256.592 261.146 256.421 260.618Z" fill="#D9C468"/>
<path d="M280.622 257.728C280.02 255.801 279.418 253.875 278.816 251.948C278.653 251.427 278.08 251.04 277.529 251.218C277.005 251.387 276.624 251.945 276.799 252.504C277.4 254.431 278.003 256.357 278.605 258.284C278.768 258.805 279.341 259.192 279.891 259.015C280.416 258.845 280.796 258.287 280.622 257.728Z" fill="#D9C468"/>
<path d="M268.704 209.686C267.798 207.469 267.17 205.082 266.923 202.742C266.864 202.18 266.485 201.696 265.877 201.696C265.357 201.696 264.771 202.176 264.831 202.742C265.104 205.321 265.705 207.839 266.687 210.242C266.901 210.764 267.382 211.135 267.974 210.972C268.468 210.837 268.919 210.212 268.704 209.686Z" fill="#D9C468"/>
<path d="M283.724 192.428C283.199 192.15 282.617 192.315 282.293 192.803C281.573 193.888 280.853 194.973 280.133 196.058C279.83 196.515 280.028 197.236 280.508 197.489C281.033 197.766 281.616 197.601 281.939 197.114C282.659 196.029 283.379 194.944 284.099 193.859C284.403 193.401 284.204 192.681 283.724 192.428Z" fill="#D9C468"/>
<path d="M304.73 247.307C304.2 246.961 303.68 246.6 303.174 246.22C303.108 246.171 303.042 246.12 302.975 246.07C302.963 246.06 302.95 246.049 302.938 246.04C302.816 245.945 302.696 245.85 302.576 245.753C302.324 245.549 302.075 245.34 301.83 245.127C300.874 244.297 299.976 243.402 299.139 242.452C298.775 242.041 298.025 242.054 297.66 242.452C297.257 242.892 297.273 243.493 297.66 243.931C299.416 245.923 301.45 247.662 303.674 249.113C304.134 249.413 304.85 249.22 305.105 248.738C305.38 248.217 305.22 247.627 304.73 247.307Z" fill="#D9C468"/>
<path d="M321.132 227.375C320.606 225.006 319.682 222.721 318.421 220.648C318.136 220.181 317.47 219.963 316.99 220.273C316.521 220.576 316.31 221.204 316.615 221.704C317.817 223.68 318.609 225.652 319.115 227.93C319.234 228.465 319.883 228.829 320.402 228.661C320.963 228.479 321.259 227.948 321.132 227.375Z" fill="#D9C468"/>
<path d="M298.95 208.01C298.693 207.57 297.968 207.287 297.519 207.634C294.858 209.687 292.54 212.09 290.602 214.837C290.276 215.299 290.519 216 290.977 216.268C291.5 216.574 292.081 216.356 292.408 215.893C293.263 214.68 294.189 213.558 295.256 212.443C295.776 211.901 296.316 211.377 296.873 210.873C297.166 210.608 297.465 210.348 297.768 210.094C298.02 209.883 298.392 209.581 298.574 209.44C299.021 209.096 299.261 208.542 298.95 208.01Z" fill="#D9C468"/>
<path d="M234.282 194.629C234.13 194.392 233.925 194.237 233.656 194.148C232.934 193.908 232.211 193.666 231.489 193.426C231.239 193.343 230.905 193.401 230.683 193.531C230.466 193.658 230.259 193.907 230.202 194.156C230.142 194.424 230.155 194.724 230.307 194.962C230.46 195.198 230.665 195.353 230.932 195.443C231.655 195.684 232.377 195.925 233.1 196.166C233.349 196.248 233.683 196.19 233.906 196.06C234.123 195.933 234.33 195.684 234.386 195.435C234.448 195.166 234.435 194.866 234.282 194.629Z" fill="#D9C468"/>
<path d="M250.375 193.697C249.991 193.344 249.267 193.246 248.896 193.697C247.211 195.743 245.525 197.79 243.839 199.838C243.492 200.259 243.396 200.909 243.839 201.317C244.223 201.669 244.947 201.768 245.318 201.317C247.004 199.27 248.689 197.223 250.375 195.176C250.723 194.754 250.819 194.104 250.375 193.697Z" fill="#D9C468"/>
<path d="M216.021 208.586C215.397 206.59 215.113 204.796 215.093 202.743C215.087 202.197 214.616 201.672 214.047 201.697C213.484 201.722 212.994 202.157 213.001 202.743C213.023 204.909 213.358 207.076 214.005 209.142C214.168 209.664 214.741 210.051 215.291 209.873C215.815 209.703 216.196 209.146 216.021 208.586Z" fill="#D9C468"/>
<path d="M223.445 217.023C223.301 216.8 223.086 216.604 222.82 216.542C222.563 216.484 222.234 216.483 222.014 216.648C221.394 217.111 220.8 217.604 220.252 218.151C219.705 218.698 219.212 219.293 218.749 219.913C218.597 220.115 218.579 220.486 218.644 220.719C218.71 220.961 218.898 221.224 219.124 221.343C219.367 221.472 219.661 221.536 219.93 221.449C220.206 221.359 220.383 221.198 220.555 220.968C220.563 220.958 220.571 220.947 220.579 220.936C221.296 220.02 222.122 219.195 223.037 218.478C223.048 218.47 223.058 218.462 223.069 218.454C223.296 218.284 223.472 218.112 223.55 217.829C223.619 217.579 223.588 217.245 223.445 217.023Z" fill="#D9C468"/>
<path d="M214.159 237.501C214.081 237.26 213.922 236.98 213.678 236.876C212.835 236.515 211.993 236.153 211.15 235.792C211.03 235.715 210.9 235.674 210.761 235.668C210.622 235.637 210.482 235.643 210.344 235.687C210.101 235.754 209.838 235.941 209.718 236.167C209.59 236.41 209.526 236.704 209.613 236.973C209.691 237.214 209.85 237.494 210.093 237.598C210.936 237.959 211.779 238.321 212.622 238.682C212.742 238.759 212.871 238.8 213.011 238.806C213.15 238.837 213.289 238.831 213.428 238.787C213.671 238.72 213.933 238.533 214.053 238.306C214.181 238.064 214.245 237.77 214.159 237.501Z" fill="#D9C468"/>
<path d="M216.904 252.756C216.436 252.482 215.732 252.627 215.473 253.131C214.224 255.564 213.471 258.179 213.211 260.898C213.157 261.462 213.731 261.944 214.257 261.944C214.867 261.944 215.249 261.463 215.303 260.898C215.521 258.616 216.217 256.258 217.28 254.187C217.537 253.685 217.41 253.052 216.904 252.756Z" fill="#D9C468"/>
<path d="M202.224 264.25C199.815 263.65 197.406 263.05 194.999 262.449C194.451 262.312 193.864 262.626 193.712 263.18C193.565 263.716 193.892 264.329 194.443 264.467C196.851 265.067 199.26 265.667 201.668 266.268C202.215 266.404 202.802 266.091 202.954 265.537C203.102 265.001 202.774 264.388 202.224 264.25Z" fill="#D9C468"/>
<path d="M195.775 280.762C195.749 280.479 195.675 280.23 195.468 280.023C195.287 279.841 194.989 279.705 194.729 279.716C194.204 279.74 193.63 280.179 193.683 280.762C193.803 282.087 193.923 283.412 194.044 284.736C194.07 285.019 194.143 285.269 194.35 285.476C194.531 285.657 194.829 285.794 195.09 285.782C195.614 285.758 196.189 285.319 196.136 284.736C196.015 283.412 195.895 282.087 195.775 280.762Z" fill="#D9C468"/>
<path d="M206.925 281.921C206.335 281.787 205.838 282.101 205.638 282.652C205.156 283.976 204.675 285.301 204.193 286.626C204.006 287.141 204.403 287.794 204.924 287.912C205.514 288.047 206.01 287.733 206.211 287.181C206.692 285.857 207.174 284.532 207.655 283.208C207.842 282.693 207.446 282.04 206.925 281.921Z" fill="#D9C468"/>
<path d="M234.385 263.507C233.783 261.822 233.181 260.136 232.579 258.45C232.396 257.936 231.858 257.537 231.292 257.72C230.786 257.883 230.365 258.455 230.562 259.006C231.163 260.692 231.766 262.378 232.368 264.063C232.551 264.577 233.089 264.977 233.654 264.794C234.161 264.63 234.582 264.059 234.385 263.507Z" fill="#D9C468"/>
<path d="M314.003 235.961C313.949 235.418 313.56 234.888 312.957 234.915C312.437 234.938 311.853 235.378 311.911 235.961C312.137 238.251 312.363 240.539 312.59 242.829C312.644 243.371 313.033 243.902 313.636 243.875C314.157 243.851 314.74 243.412 314.682 242.829C314.455 240.539 314.229 238.25 314.003 235.961Z" fill="#D9C468"/>
<path d="M317.09 207.82C316.906 207.25 316.379 206.973 315.804 207.089C313.611 207.532 311.494 208.214 309.434 209.084C308.928 209.297 308.78 210.082 309.059 210.515C309.399 211.041 309.949 211.118 310.49 210.89C310.416 210.921 310.438 210.912 310.557 210.862C310.627 210.833 310.699 210.805 310.769 210.776C310.875 210.733 310.982 210.691 311.088 210.649C311.337 210.552 311.588 210.458 311.839 210.367C312.324 210.192 312.814 210.029 313.307 209.878C314.311 209.57 315.33 209.314 316.36 209.106C316.897 208.998 317.256 208.332 317.09 207.82Z" fill="#D9C468"/>
<mask id="mask9_152_502" style="mask-type:luminance" maskUnits="userSpaceOnUse" x="185" y="183" width="52" height="117">
<path d="M236.028 205.697C236.673 200.578 236.489 195.41 236.558 190.261C236.587 188.157 236.675 186.051 236.565 183.952C232.918 185.171 229.326 186.552 225.801 188.09C222.711 189.438 219.637 190.93 217.055 193.099C209.504 199.447 205.693 209.966 202.306 218.927C194.912 238.487 190.168 259.463 186.322 280.009C185.661 283.541 185.061 287.289 186.346 290.644C188.249 295.608 193.762 298.26 199.02 299.044C201.087 299.353 203.239 299.443 205.228 298.802C210.026 297.255 212.512 292.074 214.23 287.334C219.09 273.928 220.691 259.685 223.925 245.863C227.112 232.246 234.289 219.615 236.028 205.697Z" fill="white"/>
</mask>
<g mask="url(#mask9_152_502)">
<path d="M195.112 230.914C196.44 229.585 198.744 229.384 200.282 230.465C201.82 231.546 202.412 233.782 201.61 235.481C200.814 237.172 198.817 238.494 199.108 240.34C199.309 241.611 200.554 242.443 201.08 243.617C202.03 245.74 200.432 248.041 199.58 250.206C199.322 250.862 199.129 251.548 198.765 252.152C197.725 253.879 195.52 254.55 193.503 254.547C191.486 254.543 189.5 254.014 187.484 253.981C185.468 253.949 183.256 254.55 182.144 256.232" fill="black"/>
</g>
</g>
</svg>
