<svg width="30" height="25" viewBox="0 0 30 25" fill="none" xmlns="http://www.w3.org/2000/svg">
<rect x="0.0417938" y="0.186523" width="29.1593" height="24.2994" rx="9.71977" fill="#0D6EFD" fill-opacity="0.6"/>
<path d="M17.8743 3.27346H12.2944C10.9159 3.27456 9.59138 3.80933 8.59858 4.76564C7.60578 5.72194 7.0218 7.0255 6.9691 8.40296H6.24408C6.06381 8.40296 5.89093 8.47457 5.76346 8.60204C5.63599 8.72951 5.56438 8.9024 5.56438 9.08267C5.56438 9.26294 5.63599 9.43582 5.76346 9.56329C5.89093 9.69076 6.06381 9.76237 6.24408 9.76237H6.96004V14.9191H6.27127C6.091 14.9191 5.91812 14.9907 5.79065 15.1181C5.66318 15.2456 5.59156 15.4185 5.59156 15.5988C5.59156 15.779 5.66318 15.9519 5.79065 16.0794C5.91812 16.2069 6.091 16.2785 6.27127 16.2785H6.99629C7.05016 17.6547 7.6348 18.9566 8.6276 19.9113C9.6204 20.8659 10.9442 21.399 12.3215 21.3989H17.9015C18.6024 21.399 19.2964 21.261 19.9439 20.9928C20.5915 20.7245 21.1798 20.3313 21.6753 19.8356C22.1707 19.3398 22.5637 18.7513 22.8316 18.1036C23.0995 17.456 23.2372 16.7619 23.2367 16.061V8.6114C23.2355 7.90869 23.0958 7.2131 22.8256 6.56441C22.5554 5.91573 22.16 5.32666 21.6619 4.8309C21.1639 4.33515 20.573 3.94242 19.9231 3.67518C19.2732 3.40794 18.577 3.27143 17.8743 3.27346ZM15.4464 6.83511C15.8621 6.83486 16.2726 6.92695 16.6484 7.10471C17.0241 7.28248 17.3557 7.5415 17.6192 7.86305C17.8826 8.18459 18.0713 8.56064 18.1717 8.96402C18.2721 9.36741 18.2816 9.78805 18.1996 10.1956C18.118 10.6029 17.947 10.987 17.6991 11.3203C17.4511 11.6536 17.1323 11.9277 16.7657 12.123C16.3991 12.3183 15.9937 12.4299 15.5787 12.4496C15.1638 12.4694 14.7497 12.3969 14.3661 12.2374C13.9398 12.0596 13.564 11.7795 13.2718 11.4218C12.9796 11.0642 12.78 10.64 12.6909 10.1868C12.6017 9.73362 12.6257 9.26546 12.7606 8.82375C12.8955 8.38203 13.1372 7.98039 13.4644 7.65438C13.9907 7.12994 14.7034 6.83536 15.4464 6.83511ZM18.6174 17.3207C18.4372 17.3207 18.2643 17.2491 18.1368 17.1216C18.0093 16.9941 17.9377 16.8212 17.9377 16.641C17.9377 15.5444 16.5692 14.6019 15.4464 14.6019C14.3235 14.6019 12.965 15.5081 12.965 16.641C12.965 16.8212 12.8934 16.9941 12.7659 17.1216C12.6384 17.2491 12.4656 17.3207 12.2853 17.3207C12.105 17.3207 11.9321 17.2491 11.8047 17.1216C11.6772 16.9941 11.6056 16.8212 11.6056 16.641C11.6056 14.6925 13.6356 13.2425 15.4464 13.2425C17.2589 13.2425 19.2962 14.6925 19.2962 16.641C19.2939 16.8205 19.2215 16.992 19.0945 17.119C18.9676 17.246 18.797 17.3183 18.6174 17.3207Z" fill="white"/>
<path d="M16.8964 9.63558C16.8988 10.0202 16.7484 10.3899 16.4781 10.6636C16.2079 10.9372 15.84 11.0923 15.4554 11.0947C15.0709 11.0971 14.7011 10.9466 14.4275 10.6764C14.1538 10.4061 13.9988 10.0383 13.9964 9.65371C13.9939 9.26913 14.1444 8.89936 14.4146 8.62572C14.6849 8.35209 15.0528 8.19701 15.4373 8.19461C15.8219 8.1922 16.1917 8.34267 16.4653 8.61291C16.7389 8.88314 16.894 9.25101 16.8964 9.63558Z" fill="white"/>
</svg>
