<svg width="30" height="25" viewBox="0 0 30 25" fill="none" xmlns="http://www.w3.org/2000/svg">
<rect x="0.622625" y="0.186523" width="29.1593" height="24.2994" rx="9.71977" fill="#0D6EFD"/>
<g clip-path="url(#clip0_87_155)">
<path d="M11.4469 11.6733C13.1562 11.6733 14.5396 10.2899 14.5396 8.58069C14.5396 6.87145 13.1562 5.48804 11.4469 5.48804C9.7377 5.48804 8.35429 6.87145 8.35429 8.58069C8.35429 10.2899 9.7377 11.6733 11.4469 11.6733ZM13.5676 12.557H13.3384C12.7641 12.8331 12.1262 12.9988 11.4469 12.9988C10.7677 12.9988 10.1326 12.8331 9.55546 12.557H9.32627C7.57008 12.557 6.14525 13.9818 6.14525 15.738V16.5332C6.14525 17.265 6.73893 17.8587 7.47068 17.8587H15.4232C16.155 17.8587 16.7486 17.265 16.7486 16.5332V15.738C16.7486 13.9818 15.3238 12.557 13.5676 12.557ZM19.3995 11.6733C20.863 11.6733 22.0503 10.486 22.0503 9.0225C22.0503 7.55901 20.863 6.37165 19.3995 6.37165C17.936 6.37165 16.7486 7.55901 16.7486 9.0225C16.7486 10.486 17.936 11.6733 19.3995 11.6733ZM20.7249 12.557H20.62C20.2362 12.6895 19.8303 12.7779 19.3995 12.7779C18.9687 12.7779 18.5628 12.6895 18.179 12.557H18.0741C17.5108 12.557 16.9916 12.7199 16.536 12.9822C17.2098 13.7084 17.6323 14.6721 17.6323 15.738V16.7983C17.6323 16.8591 17.6185 16.9171 17.6157 16.975H22.4921C23.2239 16.975 23.8176 16.3814 23.8176 15.6496C23.8176 13.9404 22.4342 12.557 20.7249 12.557Z" fill="white"/>
</g>
<defs>
<clipPath id="clip0_87_155">
<rect width="17.6723" height="14.1379" fill="white" transform="translate(6.14523 4.60449)"/>
</clipPath>
</defs>
</svg>
