<svg width="35" height="35" viewBox="0 0 35 35" fill="none" xmlns="http://www.w3.org/2000/svg">
<path d="M29.1571 27.6857V15.3C29.1571 15.0738 29.1045 14.8507 29.0033 14.6484C28.9021 14.446 28.7553 14.27 28.5743 14.1343L18.3743 6.4843C18.1221 6.29513 17.8153 6.19287 17.5 6.19287C17.1847 6.19287 16.8779 6.29513 16.6257 6.4843L6.42571 14.1343C6.24474 14.27 6.09786 14.446 5.99669 14.6484C5.89553 14.8507 5.84286 15.0738 5.84286 15.3V27.6857C5.84286 28.0722 5.99638 28.4428 6.26964 28.7161C6.54291 28.9894 6.91354 29.1429 7.3 29.1429H13.1286C13.515 29.1429 13.8857 28.9894 14.1589 28.7161C14.4322 28.4428 14.5857 28.0722 14.5857 27.6857V23.3143C14.5857 22.9278 14.7392 22.5572 15.0125 22.2839C15.2858 22.0107 15.6564 21.8572 16.0429 21.8572H18.9571C19.3436 21.8572 19.7142 22.0107 19.9875 22.2839C20.2608 22.5572 20.4143 22.9278 20.4143 23.3143V27.6857C20.4143 28.0722 20.5678 28.4428 20.8411 28.7161C21.1143 28.9894 21.485 29.1429 21.8714 29.1429H27.7C28.0865 29.1429 28.4571 28.9894 28.7304 28.7161C29.0036 28.4428 29.1571 28.0722 29.1571 27.6857Z" fill="#0D6EFD" stroke="#0D6EFD" stroke-width="2.91429" stroke-linecap="round" stroke-linejoin="round"/>
</svg>
