<svg width="87" height="15" viewBox="0 0 87 15" fill="none" xmlns="http://www.w3.org/2000/svg">
<g id="logos:android" clip-path="url(#clip0_412_1472)">
<path id="Vector" d="M86.3154 13.7549C86.308 13.7079 86.3005 13.6612 86.2929 13.6148C86.094 12.4157 85.7064 11.2558 85.1444 10.1781C84.5942 9.12208 83.8842 8.15746 83.0393 7.3184C82.4224 6.70495 81.7385 6.16282 81.0005 5.70222L81.0133 5.67968L81.7093 4.47873L82.8775 2.46312C82.9161 2.3963 82.9467 2.32757 82.9693 2.25694C83.0154 2.11367 83.0304 1.96224 83.0133 1.81272C82.9963 1.6632 82.9476 1.51904 82.8704 1.38981C82.7809 1.2394 82.6549 1.11396 82.5042 1.02504C82.3671 0.943645 82.2135 0.894208 82.0548 0.880405C81.9332 0.870306 81.8109 0.880941 81.6929 0.911854C81.5588 0.947412 81.4331 1.00906 81.3229 1.09327C81.2128 1.17748 81.1203 1.28259 81.0508 1.4026L80.5625 2.24516L79.8826 3.4182C79.6507 3.8188 79.4184 4.21872 79.1864 4.61932L79.1103 4.75084C79.0754 4.73682 79.0403 4.72303 79.0052 4.70947C77.6913 4.20912 76.2968 3.95354 74.8908 3.95536C74.8513 3.95525 74.8117 3.95547 74.772 3.95603C73.518 3.96751 72.2743 4.18337 71.0898 4.59511C70.9564 4.64175 70.8241 4.69085 70.6931 4.74243C70.6695 4.70156 70.6453 4.66069 70.6221 4.61966L69.926 3.41887L68.7578 1.4031C68.6576 1.2295 68.5098 1.08813 68.332 0.995626C68.1541 0.90312 67.9535 0.863322 67.7538 0.880909C67.5949 0.894375 67.4411 0.943834 67.3041 1.02554C67.0667 1.16632 66.8942 1.39484 66.8238 1.66176C66.7718 1.85762 66.777 2.0643 66.8389 2.25727C66.862 2.32791 66.8921 2.39686 66.9306 2.46346C67.0938 2.74431 67.2566 3.02517 67.4188 3.30603C67.6459 3.69698 67.8727 4.08799 68.0993 4.47906L68.795 5.68002L68.8007 5.69011C68.0552 6.15354 67.3646 6.70008 66.7422 7.31924C66.2788 7.77994 65.8551 8.27896 65.4757 8.81097C65.1645 9.24676 64.8843 9.70387 64.6372 10.1789C64.2103 10.9974 63.8836 11.8643 63.6639 12.761C63.595 13.0436 63.5366 13.3288 63.4889 13.6158C63.481 13.6624 63.4736 13.7091 63.4666 13.7559C63.4407 13.924 63.4187 14.0927 63.4004 14.2618H86.3795C86.361 14.092 86.339 13.9234 86.3137 13.7559L86.3154 13.7549Z" fill="#34A853"/>
<path id="Vector_2" d="M80.8679 11.084C81.3277 10.7779 81.3946 10.0698 81.017 9.50225C80.6398 8.93482 79.9612 8.72308 79.5018 9.02916C79.0418 9.33525 78.9749 10.0433 79.3524 10.6107C79.7296 11.1783 80.4084 11.39 80.8679 11.084ZM70.4491 10.6127C70.8267 10.0453 70.7597 9.3371 70.2999 9.03101C69.8401 8.72493 69.1617 8.93684 68.7842 9.50427C68.4069 10.0717 68.4739 10.7799 68.9333 11.086C69.3931 11.3921 70.0719 11.1802 70.4491 10.6127ZM52.0352 9.95784C52.0352 8.41599 53.1482 7.1994 54.5523 7.1994C55.9564 7.1994 56.9837 8.38168 56.9837 9.95784C56.9837 11.534 55.9393 12.7506 54.5523 12.7506C53.1654 12.7506 52.0352 11.517 52.0352 9.95784ZM47.2068 14.2583H49.1759V5.69169H47.2067L47.2068 14.2583ZM46.8984 2.83065C46.8984 3.56727 47.498 4.16699 48.1998 4.16699C48.9017 4.16699 49.4841 3.56727 49.4841 2.83048C49.4841 2.14516 48.9017 1.56276 48.1998 1.56276C47.4978 1.56276 46.8984 2.14533 46.8984 2.83065ZM39.1762 9.94069C39.1762 8.3985 40.3064 7.1994 41.7616 7.1994C43.2172 7.1994 44.3472 8.3985 44.3472 9.94069C44.3472 11.4825 43.1999 12.7504 41.7616 12.7504C40.3233 12.7504 39.1762 11.4997 39.1762 9.94069ZM37.1727 9.94069C37.1727 12.5104 39.1934 14.5323 41.7616 14.5323C44.3302 14.5323 46.3505 12.5106 46.3505 9.94069C46.3505 7.3706 44.3643 5.41739 41.7616 5.41739C39.1592 5.41739 37.1727 7.38775 37.1727 9.94069ZM31.8477 14.2581H33.8167V9.76948C33.8167 7.98764 34.7584 7.1994 36.3338 7.1994C36.6248 7.1994 36.8476 7.21655 37.0528 7.26801V5.53747C36.8476 5.46902 36.4877 5.41756 36.0942 5.41756C33.4229 5.41756 31.8477 7.09664 31.8477 9.76948V14.2581ZM23.9541 9.95784C23.9541 8.41565 25.0671 7.19923 26.4711 7.19923C27.8754 7.19923 28.9026 8.38151 28.9026 9.95767C28.9026 11.5338 27.8582 12.7504 26.4711 12.7504C25.0841 12.7504 23.9541 11.517 23.9541 9.95784ZM21.9508 9.95767C21.9508 12.4418 23.937 14.5321 26.2827 14.5321C27.2587 14.5321 28.1492 14.1381 28.6799 13.487H28.7657V14.258H30.7347V0.877441H28.7657V6.39416H28.6799C28.1661 5.77762 27.276 5.41772 26.2827 5.41772C23.9198 5.41772 21.9508 7.49085 21.9508 9.95801M13.321 14.2583H15.29V9.23821C15.29 8.0391 16.0947 7.1994 17.2077 7.1994C18.3207 7.1994 19.1254 8.03894 19.1254 9.23838V14.2583H21.0946V9.23821C21.0946 7.1481 19.4337 5.41756 17.2077 5.41756C14.9817 5.41756 13.321 7.14827 13.321 9.23838V14.2583ZM4.28009 9.1183L6.4035 3.03633H6.50609L8.6295 9.11847L4.28009 9.1183ZM0.273438 14.2583H2.49943L3.61226 11.0715H9.29716L10.41 14.2583H12.6362L7.68753 0.877441H5.22189L0.273438 14.2583ZM54.3638 14.5324C55.3399 14.5324 56.2302 14.1384 56.7612 13.4874H56.8469V14.2583H58.816V0.877441H56.8466V6.39416H56.7608C56.2476 5.77762 55.3572 5.41772 54.364 5.41772C52.0012 5.41772 50.0322 7.49085 50.0322 9.95801C50.0322 12.4252 52.0184 14.5326 54.364 14.5326" fill="#202124"/>
</g>
<defs>
<clipPath id="clip0_412_1472">
<rect width="86.1068" height="13.7905" fill="white" transform="translate(0.273438 0.876709)"/>
</clipPath>
</defs>
</svg>
