<svg width="71" height="16" viewBox="0 0 71 16" fill="none" xmlns="http://www.w3.org/2000/svg">
<g id="logos:microsoft-windows" clip-path="url(#clip0_412_1470)">
<path id="Vector" d="M29.441 12.1761H27.5967L25.7925 5.318L23.9724 12.1761H22.0873L19.6089 3.26229H21.2829L23.0704 10.3558L25.0206 3.26229H26.7108L28.5472 10.3965L30.2455 3.26229H31.8625L29.441 12.1761ZM34.227 3.91229C34.227 4.14667 34.1444 4.33608 33.9791 4.49477L33.9589 4.51359C33.7882 4.67611 33.577 4.75738 33.3252 4.75738C33.0734 4.75738 32.8621 4.67611 32.6912 4.51359C32.5206 4.35116 32.4313 4.15608 32.4313 3.91229C32.4313 3.66851 32.5206 3.4654 32.6914 3.2948C32.87 3.13228 33.0813 3.05102 33.325 3.05102C33.5852 3.05102 33.7963 3.13224 33.967 3.30283C34.1308 3.46678 34.2197 3.66048 34.2266 3.8842L34.227 3.91229ZM32.5532 12.1761V5.75687H34.0482V12.1761H32.5532ZM41.3207 12.1761H39.8174V8.60065C39.8174 7.66619 39.5248 6.85362 38.5823 6.85362C37.6397 6.85362 37.0466 7.6987 37.0466 8.55195V12.1759H35.584V5.75687H37.0466V6.65881H37.0709C37.5585 5.90311 38.2573 5.64314 39.1755 5.64314C39.8661 5.64314 40.3944 5.81373 40.7762 6.25246C41.1581 6.69133 41.3207 7.35752 41.3207 8.25946V12.1761ZM47.171 12.1761V11.3473H47.1466C46.6835 12.1272 45.7327 12.3061 45.0746 12.3061C43.1083 12.3061 42.3851 10.7784 42.3851 9.15339C42.3851 8.07264 42.6532 7.21132 43.1895 6.56943C43.7339 5.9193 44.4571 5.63497 45.3589 5.63497C46.7648 5.63497 47.1466 6.41503 47.1466 6.41503H47.171V2.70153H48.6905V12.1761H47.171ZM47.1873 8.51141C47.1873 7.73938 46.6916 6.8539 45.6353 6.8539C44.4327 6.8539 43.9614 7.90195 43.9614 9.11271C43.9614 10.1691 44.4002 11.1197 45.546 11.1359C46.656 11.1359 47.1609 10.0847 47.1787 9.20444L47.1873 8.51141ZM56.3529 8.93395C56.3529 11.1604 55.0204 12.3629 53.0295 12.3629C50.8601 12.3629 49.7469 11.0629 49.7469 9.07203C49.7469 6.79689 51.0794 5.61062 53.192 5.61062C55.1179 5.61062 56.3529 6.84559 56.3529 8.93395ZM54.7928 8.98266C54.7928 7.99133 54.4434 6.89444 53.1027 6.89444C51.8188 6.89444 51.3152 7.85325 51.3152 9.02333C51.3152 10.299 51.9163 11.1034 53.0864 11.1034C54.3413 11.1034 54.776 10.1556 54.7924 9.01724L54.7928 8.98266ZM64.3972 12.1759H62.7477L61.4883 7.52825L60.1313 12.1761H58.5305L56.6617 5.77305H58.23L59.4489 10.7459L60.8788 5.77305H62.3495L63.6252 10.7379L64.8116 5.77305H66.2498L64.3972 12.1759ZM70.9383 10.3885C70.9383 11.8187 69.6382 12.3793 68.3382 12.3793C67.4931 12.3793 66.648 12.0542 66.648 12.0542V10.5347L66.6776 10.5594C66.8241 10.677 67.4997 11.1777 68.4032 11.1847C69.1019 11.1847 69.4187 10.9654 69.4187 10.5429C69.4347 10.2104 69.2422 10.0245 69.0069 9.88737L68.9488 9.85444C68.7786 9.75981 68.5305 9.63833 68.1919 9.50288C67.7694 9.32412 67.4524 9.14536 67.2493 8.97463C67.0462 8.8039 66.8918 8.60909 66.7943 8.38149C66.6967 8.15404 66.6237 7.90209 66.6237 7.60144C66.6237 6.44754 67.5906 5.62709 69.1263 5.62709C70.1421 5.62709 70.5808 5.8789 70.5808 5.8789V7.30895L70.5483 7.28737C70.3996 7.19093 69.7642 6.80519 69.1101 6.80519C68.5738 6.80519 68.1674 7.00028 68.1594 7.44717C68.1594 8.01582 68.8581 8.30028 69.2726 8.46271C69.8659 8.70013 70.3053 8.95291 70.553 9.2436L70.5726 9.26712C70.826 9.56804 70.9328 9.86122 70.938 10.3496L70.9383 10.3885ZM0.0996094 0.231445H7.19317V7.325H0.0996094V0.231445ZM7.97322 0.231445H15.0668V7.325H7.97322V0.231445ZM0.0996094 8.10506H7.19317V15.1986H0.0996094V8.10506ZM7.97322 8.10506H15.0668V15.1986H7.97322V8.10506Z" fill="#0078D4"/>
</g>
<defs>
<clipPath id="clip0_412_1470">
<rect width="70.8387" height="15.0809" fill="white" transform="translate(0.0996094 0.231445)"/>
</clipPath>
</defs>
</svg>
