<svg width="25" height="25" viewBox="0 0 25 25" fill="none" xmlns="http://www.w3.org/2000/svg">
<path d="M21.2429 9.68573H15.4143V3.85716C15.4143 3.08424 15.1072 2.34298 14.5607 1.79645C14.0142 1.24991 13.2729 0.942871 12.5 0.942871C11.7271 0.942871 10.9858 1.24991 10.4393 1.79645C9.89275 2.34298 9.58571 3.08424 9.58571 3.85716L9.68917 9.68573H3.75714C2.98423 9.68573 2.24297 9.99277 1.69643 10.5393C1.1499 11.0858 0.842857 11.8271 0.842857 12.6C0.842857 13.3729 1.1499 14.1142 1.69643 14.6607C2.24297 15.2073 2.98423 15.5143 3.75714 15.5143L9.68917 15.4108L9.58571 21.3429C9.58571 22.1158 9.89275 22.857 10.4393 23.4036C10.9858 23.9501 11.7271 24.2572 12.5 24.2572C13.2729 24.2572 14.0142 23.9501 14.5607 23.4036C15.1072 22.857 15.4143 22.1158 15.4143 21.3429V15.4108L21.2429 15.5143C22.0158 15.5143 22.757 15.2073 23.3036 14.6607C23.8501 14.1142 24.1571 13.3729 24.1571 12.6C24.1571 11.8271 23.8501 11.0858 23.3036 10.5393C22.757 9.99277 22.0158 9.68573 21.2429 9.68573Z" fill="#0D6EFD"/>
</svg>
