<svg width="30" height="25" viewBox="0 0 30 25" fill="none" xmlns="http://www.w3.org/2000/svg">
<rect x="0.472321" y="0.186523" width="29.1593" height="24.2994" rx="9.71977" fill="#0D6EFD" fill-opacity="0.6"/>
<path d="M14.8311 2.94458C12.9958 2.94458 11.2356 3.67366 9.93786 4.97143C8.64009 6.26921 7.91101 8.02937 7.91101 9.86469V13.3524C7.91115 13.5058 7.87561 13.6571 7.80721 13.7943L6.1098 17.1882C6.02689 17.354 5.98773 17.5382 5.99606 17.7234C6.00439 17.9086 6.05993 18.0886 6.1574 18.2463C6.25486 18.404 6.39103 18.5341 6.55295 18.6244C6.71488 18.7146 6.89719 18.762 7.08257 18.762H22.5797C22.7651 18.762 22.9474 18.7146 23.1093 18.6244C23.2712 18.5341 23.4074 18.404 23.5048 18.2463C23.6023 18.0886 23.6579 17.9086 23.6662 17.7234C23.6745 17.5382 23.6354 17.354 23.5524 17.1882L21.856 13.7943C21.7873 13.6572 21.7514 13.5059 21.7512 13.3524V9.86469C21.7512 8.02937 21.0222 6.26921 19.7244 4.97143C18.4266 3.67366 16.6665 2.94458 14.8311 2.94458ZM14.8311 21.7277C14.2176 21.7281 13.619 21.5381 13.1179 21.184C12.6168 20.8299 12.2379 20.3291 12.0334 19.7506H17.6288C17.4243 20.3291 17.0454 20.8299 16.5443 21.184C16.0433 21.5381 15.4447 21.7281 14.8311 21.7277Z" fill="white"/>
</svg>
