<svg width="35" height="36" viewBox="0 0 35 36" fill="none" xmlns="http://www.w3.org/2000/svg">
<path d="M26.2429 16.2571C26.2429 17.5966 25.979 18.923 25.4664 20.1605C24.9538 21.398 24.2025 22.5225 23.2553 23.4696C22.3082 24.4168 21.1837 25.1681 19.9462 25.6807C18.7087 26.1933 17.3823 26.4571 16.0429 26.4571C14.7034 26.4571 13.377 26.1933 12.1395 25.6807C10.902 25.1681 9.77753 24.4168 8.83037 23.4696C7.88321 22.5225 7.13188 21.398 6.61929 20.1605C6.10669 18.923 5.84286 17.5966 5.84286 16.2571C5.84286 13.5519 6.9175 10.9575 8.83037 9.04464C10.7432 7.13177 13.3376 6.05713 16.0429 6.05713C18.7481 6.05713 21.3425 7.13177 23.2553 9.04464C25.1682 10.9575 26.2429 13.5519 26.2429 16.2571Z" fill="#0D6EFD"/>
<path d="M29.1572 29.3714L26.2429 26.4572" stroke="#0D6EFD" stroke-width="2.91429" stroke-linecap="round"/>
</svg>
